Baskervville-Regular.ufo
<glyph name="numbersign" format="1">
  <advance width="706"/>
  <unicode hex="0023"/>
  <outline>
    <contour>
      <point x="544" y="710" type="line"/>
      <point x="339" y="0" type="line"/>
      <point x="376" y="0" type="line"/>
      <point x="581" y="710" type="line"/>
    </contour>
    <contour>
      <point x="9" y="268" type="line"/>
      <point x="0" y="237" type="line"/>
      <point x="183" y="237" type="line"/>
      <point x="192" y="268" type="line"/>
    </contour>
    <contour>
      <point x="212" y="268" type="line"/>
      <point x="205" y="237" type="line"/>
      <point x="416" y="237" type="line"/>
      <point x="425" y="268" type="line"/>
    </contour>
    <contour>
      <point x="312" y="710" type="line"/>
      <point x="106" y="0" type="line"/>
      <point x="143" y="0" type="line"/>
      <point x="348" y="710" type="line"/>
    </contour>
    <contour>
      <point x="68" y="479" type="line"/>
      <point x="59" y="447" type="line"/>
      <point x="243" y="447" type="line"/>
      <point x="252" y="479" type="line"/>
    </contour>
    <contour>
      <point x="445" y="268" type="line"/>
      <point x="437" y="237" type="line"/>
      <point x="637" y="237" type="line"/>
      <point x="646" y="268" type="line"/>
    </contour>
    <contour>
      <point x="273" y="479" type="line"/>
      <point x="265" y="447" type="line"/>
      <point x="476" y="447" type="line"/>
      <point x="485" y="479" type="line"/>
    </contour>
    <contour>
      <point x="505" y="479" type="line"/>
      <point x="498" y="447" type="line"/>
      <point x="697" y="447" type="line"/>
      <point x="706" y="479" type="line"/>
    </contour>
  </outline>
</glyph>
<glyph name="quotesingle" format="1">
  <advance width="204"/>
  <unicode hex="0027"/>
  <outline>
    <contour>
      <point x="64" y="652" type="curve"/>
      <point x="90" y="469" type="line"/>
      <point x="114" y="469" type="line"/>
      <point x="140" y="652" type="line" smooth="yes"/>
      <point x="141" y="659"/>
      <point x="141" y="665"/>
      <point x="141" y="671" type="curve"/>
      <point x="141" y="700"/>
      <point x="131" y="724"/>
      <point x="102" y="724" type="curve"/>
      <point x="73" y="724"/>
      <point x="63" y="700"/>
      <point x="63" y="671" type="curve"/>
      <point x="63" y="665"/>
      <point x="63" y="659"/>
    </contour>
  </outline>
</glyph>
<glyph name="parenright" format="1">
  <advance width="368"/>
  <unicode hex="0029"/>
  <outline>
    <contour>
      <point x="50" y="-131" type="curve"/>
      <point x="65" y="-154" type="line"/>
      <point x="211" y="-59"/>
      <point x="308" y="128"/>
      <point x="308" y="321" type="curve"/>
      <point x="308" y="514"/>
      <point x="211" y="701"/>
      <point x="65" y="796" type="curve"/>
      <point x="50" y="773" type="line"/>
      <point x="155" y="699"/>
      <point x="233" y="508"/>
      <point x="233" y="321" type="curve"/>
      <point x="233" y="134"/>
      <point x="155" y="-57"/>
    </contour>
  </outline>
</glyph>
<glyph name="asterisk" format="1">
  <advance width="459"/>
  <unicode hex="002A"/>
  <outline>
    <contour>
      <point x="227" y="305" type="curve" smooth="yes"/>
      <point x="252" y="305"/>
      <point x="266" y="325"/>
      <point x="266" y="355" type="curve" smooth="yes"/>
      <point x="266" y="392"/>
      <point x="239" y="437"/>
      <point x="239" y="498" type="curve"/>
      <point x="292" y="468"/>
      <point x="318" y="421"/>
      <point x="350" y="402" type="curve" smooth="yes"/>
      <point x="361" y="395"/>
      <point x="372" y="392"/>
      <point x="381" y="392" type="curve" smooth="yes"/>
      <point x="394" y="392"/>
      <point x="405" y="399"/>
      <point x="412" y="411" type="curve" smooth="yes"/>
      <point x="417" y="420"/>
      <point x="419" y="427"/>
      <point x="419" y="434" type="curve" smooth="yes"/>
      <point x="419" y="449"/>
      <point x="408" y="460"/>
      <point x="389" y="471" type="curve" smooth="yes"/>
      <point x="358" y="489"/>
      <point x="302" y="485"/>
      <point x="249" y="515" type="curve"/>
      <point x="299" y="550"/>
      <point x="353" y="551"/>
      <point x="384" y="572" type="curve" smooth="yes"/>
      <point x="400" y="583"/>
      <point x="411" y="595"/>
      <point x="411" y="610" type="curve" smooth="yes"/>
      <point x="411" y="617"/>
      <point x="408" y="625"/>
      <point x="402" y="633" type="curve" smooth="yes"/>
      <point x="394" y="644"/>
      <point x="384" y="650"/>
      <point x="372" y="650" type="curve" smooth="yes"/>
      <point x="362" y="650"/>
      <point x="350" y="645"/>
      <point x="338" y="636" type="curve" smooth="yes"/>
      <point x="310" y="615"/>
      <point x="288" y="566"/>
      <point x="239" y="531" type="curve"/>
      <point x="239" y="592"/>
      <point x="268" y="637"/>
      <point x="268" y="674" type="curve" smooth="yes"/>
      <point x="268" y="704"/>
      <point x="254" y="724"/>
      <point x="229" y="724" type="curve" smooth="yes"/>
      <point x="198" y="724"/>
      <point x="189" y="703"/>
      <point x="189" y="674" type="curve" smooth="yes"/>
      <point x="189" y="637"/>
      <point x="220" y="592"/>
      <point x="220" y="531" type="curve"/>
      <point x="171" y="566"/>
      <point x="150" y="615"/>
      <point x="121" y="636" type="curve" smooth="yes"/>
      <point x="109" y="645"/>
      <point x="97" y="650"/>
      <point x="87" y="650" type="curve" smooth="yes"/>
      <point x="75" y="650"/>
      <point x="65" y="644"/>
      <point x="57" y="633" type="curve" smooth="yes"/>
      <point x="51" y="625"/>
      <point x="48" y="617"/>
      <point x="48" y="610" type="curve" smooth="yes"/>
      <point x="48" y="595"/>
      <point x="59" y="583"/>
      <point x="75" y="572" type="curve" smooth="yes"/>
      <point x="106" y="551"/>
      <point x="160" y="550"/>
      <point x="210" y="515" type="curve"/>
      <point x="157" y="485"/>
      <point x="102" y="489"/>
      <point x="70" y="471" type="curve"/>
      <point x="52" y="460"/>
      <point x="40" y="449"/>
      <point x="40" y="433" type="curve" smooth="yes"/>
      <point x="40" y="427"/>
      <point x="43" y="419"/>
      <point x="47" y="411" type="curve" smooth="yes"/>
      <point x="54" y="398"/>
      <point x="65" y="392"/>
      <point x="78" y="392" type="curve" smooth="yes"/>
      <point x="87" y="392"/>
      <point x="98" y="395"/>
      <point x="109" y="402" type="curve" smooth="yes"/>
      <point x="141" y="421"/>
      <point x="167" y="468"/>
      <point x="220" y="498" type="curve"/>
      <point x="220" y="437"/>
      <point x="187" y="392"/>
      <point x="187" y="355" type="curve" smooth="yes"/>
      <point x="187" y="326"/>
      <point x="196" y="305"/>
    </contour>
  </outline>
</glyph>
<glyph name="plus" format="1">
  <advance width="600"/>
  <unicode hex="002B"/>
  <outline>
    <contour>
      <point x="305" y="90" type="line"/>
      <point x="347" y="90" type="line"/>
      <point x="347" y="288" type="line"/>
      <point x="544" y="288" type="line"/>
      <point x="544" y="328" type="line"/>
      <point x="347" y="328" type="line"/>
      <point x="347" y="526" type="line"/>
      <point x="305" y="526" type="line"/>
      <point x="305" y="328" type="line"/>
      <point x="108" y="328" type="line"/>
      <point x="108" y="288" type="line"/>
      <point x="305" y="288" type="line"/>
    </contour>
  </outline>
</glyph>
<glyph name="slash" format="1">
  <advance width="296"/>
  <unicode hex="002F"/>
  <outline>
    <contour>
      <point x="260" y="834" type="line"/>
      <point x="0" y="-135" type="line"/>
      <point x="36" y="-135" type="line"/>
      <point x="296" y="834" type="line"/>
    </contour>
  </outline>
</glyph>
<glyph name="zero" format="1">
  <advance width="490"/>
  <unicode hex="0030"/>
  <outline>
    <contour>
      <point x="245" y="-11" type="curve"/>
      <point x="378" y="-11"/>
      <point x="450" y="109"/>
      <point x="450" y="229" type="curve"/>
      <point x="450" y="349"/>
      <point x="378" y="469"/>
      <point x="245" y="469" type="curve"/>
      <point x="112" y="469"/>
      <point x="40" y="349"/>
      <point x="40" y="229" type="curve"/>
      <point x="40" y="109"/>
      <point x="112" y="-11"/>
    </contour>
    <contour>
      <point x="245" y="19" type="curve"/>
      <point x="144" y="19"/>
      <point x="120" y="110"/>
      <point x="120" y="229" type="curve"/>
      <point x="120" y="348"/>
      <point x="144" y="439"/>
      <point x="245" y="439" type="curve"/>
      <point x="346" y="439"/>
      <point x="370" y="348"/>
      <point x="370" y="229" type="curve"/>
      <point x="370" y="110"/>
      <point x="346" y="19"/>
    </contour>
  </outline>
</glyph>
<glyph name="four" format="1">
  <advance width="492"/>
  <unicode hex="0034"/>
  <outline>
    <contour>
      <point x="323" y="0" type="line"/>
      <point x="446" y="-3" type="line"/>
      <point x="446" y="20" type="line"/>
      <point x="430" y="22" type="line" smooth="yes"/>
      <point x="372" y="29"/>
      <point x="358" y="31"/>
      <point x="358" y="121" type="curve"/>
      <point x="358" y="212" type="line"/>
      <point x="470" y="212" type="line"/>
      <point x="470" y="245" type="line"/>
      <point x="358" y="245" type="line"/>
      <point x="358" y="681" type="line"/>
      <point x="336" y="681" type="line"/>
      <point x="-5" y="241" type="line"/>
      <point x="-5" y="212" type="line"/>
      <point x="290" y="212" type="line"/>
      <point x="289" y="121" type="line" smooth="yes"/>
      <point x="288" y="31"/>
      <point x="274" y="29"/>
      <point x="216" y="22" type="curve"/>
      <point x="200" y="21" type="line"/>
      <point x="200" y="-2" type="line"/>
    </contour>
    <contour>
      <point x="290" y="245" type="line"/>
      <point x="31" y="245" type="line"/>
      <point x="292" y="574" type="line"/>
    </contour>
  </outline>
</glyph>
<glyph name="eight" format="1">
  <advance width="491"/>
  <unicode hex="0038"/>
  <outline>
    <contour>
      <point x="237" y="-11" type="curve"/>
      <point x="361" y="-11"/>
      <point x="441" y="68"/>
      <point x="441" y="178" type="curve"/>
      <point x="441" y="280"/>
      <point x="373" y="338"/>
      <point x="312" y="385" type="curve"/>
      <point x="234" y="446" type="line" smooth="yes"/>
      <point x="195" y="476"/>
      <point x="143" y="518"/>
      <point x="143" y="582" type="curve"/>
      <point x="143" y="645"/>
      <point x="193" y="689"/>
      <point x="258" y="689" type="curve"/>
      <point x="336" y="689"/>
      <point x="371" y="633"/>
      <point x="371" y="577" type="curve"/>
      <point x="371" y="502"/>
      <point x="308" y="450"/>
      <point x="262" y="416" type="curve"/>
      <point x="286" y="397" type="line"/>
      <point x="341" y="437"/>
      <point x="408" y="488"/>
      <point x="408" y="577" type="curve"/>
      <point x="408" y="654"/>
      <point x="358" y="724"/>
      <point x="252" y="724" type="curve"/>
      <point x="159" y="724"/>
      <point x="72" y="665"/>
      <point x="72" y="556" type="curve"/>
      <point x="72" y="481"/>
      <point x="114" y="427"/>
      <point x="167" y="386" type="curve"/>
      <point x="247" y="324" type="line" smooth="yes"/>
      <point x="311" y="275"/>
      <point x="376" y="220"/>
      <point x="376" y="139" type="curve"/>
      <point x="376" y="65"/>
      <point x="323" y="21"/>
      <point x="238" y="21" type="curve"/>
      <point x="136" y="21"/>
      <point x="87" y="79"/>
      <point x="87" y="155" type="curve"/>
      <point x="87" y="247"/>
      <point x="158" y="305"/>
      <point x="220" y="355" type="curve"/>
      <point x="195" y="374" type="line"/>
      <point x="130" y="321"/>
      <point x="50" y="260"/>
      <point x="50" y="156" type="curve"/>
      <point x="50" y="65"/>
      <point x="111" y="-11"/>
    </contour>
  </outline>
</glyph>
<glyph name="greater" format="1">
  <advance width="502"/>
  <unicode hex="003E"/>
  <outline>
    <contour>
      <point x="100" y="187" type="line"/>
      <point x="100" y="143" type="line"/>
      <point x="442" y="306" type="line"/>
      <point x="442" y="333" type="line"/>
      <point x="100" y="496" type="line"/>
      <point x="100" y="454" type="line"/>
      <point x="372" y="320" type="line"/>
    </contour>
  </outline>
</glyph>
<glyph name="A" format="1">
  <advance width="745"/>
  <unicode hex="0041"/>
  <outline>
    <contour>
      <point x="-15" y="22" type="line"/>
      <point x="-15" y="-3" type="line"/>
      <point x="106" y="0" type="line"/>
      <point x="233" y="-3" type="line"/>
      <point x="233" y="22" type="line"/>
      <point x="213" y="24" type="line" smooth="yes"/>
      <point x="162" y="28"/>
      <point x="142" y="41"/>
      <point x="142" y="66" type="curve"/>
      <point x="142" y="81"/>
      <point x="149" y="100"/>
      <point x="159" y="124" type="curve"/>
      <point x="369" y="633" type="line"/>
      <point x="345" y="633" type="line"/>
      <point x="547" y="124" type="line" smooth="yes"/>
      <point x="556" y="102"/>
      <point x="561" y="84"/>
      <point x="561" y="70" type="curve"/>
      <point x="561" y="43"/>
      <point x="543" y="29"/>
      <point x="496" y="24" type="curve"/>
      <point x="476" y="22" type="line"/>
      <point x="476" y="-3" type="line"/>
      <point x="636" y="0" type="line"/>
      <point x="760" y="-3" type="line"/>
      <point x="760" y="22" type="line"/>
      <point x="740" y="24" type="line" smooth="yes"/>
      <point x="686" y="29"/>
      <point x="660" y="58"/>
      <point x="634" y="123" type="curve"/>
      <point x="398" y="710" type="line"/>
      <point x="364" y="710" type="line"/>
      <point x="122" y="123" type="line" smooth="yes"/>
      <point x="92" y="50"/>
      <point x="63" y="32"/>
      <point x="-6" y="23" type="curve"/>
    </contour>
    <contour>
      <point x="221" y="286" type="line"/>
      <point x="208" y="254" type="line"/>
      <point x="501" y="254" type="line"/>
      <point x="489" y="286" type="line"/>
    </contour>
    <contour>
      <point x="344" y="0" type="move" name="bottom"/>
    </contour>
    <contour>
      <point x="649" y="0" type="move" name="ogonek"/>
    </contour>
    <contour>
      <point x="374" y="710" type="move" name="top"/>
    </contour>
  </outline>
</glyph>
<glyph name="D" format="1">
  <advance width="792"/>
  <unicode hex="0044"/>
  <outline>
    <contour>
      <point x="40" y="-3" type="line"/>
      <point x="188" y="0" type="line"/>
      <point x="380" y="0" type="line" smooth="yes"/>
      <point x="574" y="0"/>
      <point x="750" y="120"/>
      <point x="750" y="358" type="curve" smooth="yes"/>
      <point x="750" y="607"/>
      <point x="599" y="710"/>
      <point x="330" y="710" type="curve" smooth="yes"/>
      <point x="189" y="710" type="line"/>
      <point x="41" y="713" type="line"/>
      <point x="41" y="688" type="line"/>
      <point x="61" y="686" type="line" smooth="yes"/>
      <point x="130" y="678"/>
      <point x="147" y="676"/>
      <point x="147" y="577" type="curve" smooth="yes"/>
      <point x="147" y="133" type="line" smooth="yes"/>
      <point x="147" y="34"/>
      <point x="129" y="32"/>
      <point x="60" y="24" type="curve" smooth="yes"/>
      <point x="40" y="22" type="line"/>
    </contour>
    <contour>
      <point x="299" y="30" type="line" smooth="yes"/>
      <point x="238" y="30"/>
      <point x="233" y="88"/>
      <point x="233" y="146" type="curve" smooth="yes"/>
      <point x="233" y="680" type="line"/>
      <point x="359" y="680" type="line" smooth="yes"/>
      <point x="576" y="680"/>
      <point x="654" y="559"/>
      <point x="654" y="356" type="curve" smooth="yes"/>
      <point x="654" y="133"/>
      <point x="547" y="30"/>
      <point x="384" y="30" type="curve" smooth="yes"/>
    </contour>
    <contour>
      <point x="381" y="0" type="move" name="bottom"/>
    </contour>
    <contour>
      <point x="231" y="367" type="move" name="center"/>
    </contour>
    <contour>
      <point x="361" y="710" type="move" name="top"/>
    </contour>
  </outline>
</glyph>
<glyph name="F" format="1">
  <advance width="607"/>
  <unicode hex="0046"/>
  <outline>
    <contour>
      <point x="40" y="-3" type="line"/>
      <point x="188" y="0" type="line"/>
      <point x="189" y="0" type="line"/>
      <point x="351" y="-3" type="line"/>
      <point x="351" y="22" type="line"/>
      <point x="317" y="24" type="line" smooth="yes"/>
      <point x="252" y="28"/>
      <point x="231" y="34"/>
      <point x="231" y="133" type="curve" smooth="yes"/>
      <point x="231" y="681" type="line"/>
      <point x="395" y="681" type="line" smooth="yes"/>
      <point x="461" y="681"/>
      <point x="567" y="681"/>
      <point x="578" y="548" type="curve"/>
      <point x="602" y="548" type="line"/>
      <point x="593" y="637" type="line"/>
      <point x="590" y="710" type="line"/>
      <point x="188" y="710" type="line"/>
      <point x="40" y="713" type="line"/>
      <point x="40" y="688" type="line"/>
      <point x="60" y="686" type="line" smooth="yes"/>
      <point x="129" y="678"/>
      <point x="146" y="676"/>
      <point x="146" y="577" type="curve" smooth="yes"/>
      <point x="146" y="133" type="line" smooth="yes"/>
      <point x="146" y="34"/>
      <point x="129" y="32"/>
      <point x="60" y="24" type="curve" smooth="yes"/>
      <point x="40" y="22" type="line"/>
    </contour>
    <contour>
      <point x="414" y="226" type="curve"/>
      <point x="439" y="226" type="line"/>
      <point x="436" y="374" type="line"/>
      <point x="439" y="508" type="line"/>
      <point x="414" y="508" type="line"/>
      <point x="409" y="409"/>
      <point x="382" y="388"/>
      <point x="343" y="388" type="curve" smooth="yes"/>
      <point x="225" y="388" type="line"/>
      <point x="225" y="360" type="line"/>
      <point x="343" y="360" type="line" smooth="yes"/>
      <point x="389" y="360"/>
      <point x="414" y="323"/>
    </contour>
    <contour>
      <point x="197" y="0" type="move" name="bottom"/>
    </contour>
    <contour>
      <point x="337" y="710" type="move" name="top"/>
    </contour>
  </outline>
</glyph>
<glyph name="J" format="1">
  <advance width="431"/>
  <unicode hex="004A"/>
  <outline>
    <contour>
      <point x="130" y="-11" type="curve"/>
      <point x="205" y="-11"/>
      <point x="295" y="6"/>
      <point x="295" y="141" type="curve"/>
      <point x="295" y="577" type="line" smooth="yes"/>
      <point x="295" y="676"/>
      <point x="312" y="678"/>
      <point x="381" y="686" type="curve"/>
      <point x="401" y="688" type="line"/>
      <point x="401" y="713" type="line"/>
      <point x="253" y="710" type="line"/>
      <point x="252" y="710" type="line"/>
      <point x="104" y="713" type="line"/>
      <point x="104" y="688" type="line"/>
      <point x="124" y="686" type="line" smooth="yes"/>
      <point x="193" y="678"/>
      <point x="210" y="676"/>
      <point x="210" y="577" type="curve"/>
      <point x="210" y="123" type="line" smooth="yes"/>
      <point x="210" y="99"/>
      <point x="210" y="13"/>
      <point x="136" y="13" type="curve"/>
      <point x="109" y="13"/>
      <point x="101" y="28"/>
      <point x="101" y="41" type="curve"/>
      <point x="101" y="48"/>
      <point x="103" y="54"/>
      <point x="106" y="62" type="curve"/>
      <point x="109" y="69"/>
      <point x="112" y="77"/>
      <point x="112" y="89" type="curve"/>
      <point x="112" y="113"/>
      <point x="92" y="130"/>
      <point x="67" y="130" type="curve"/>
      <point x="32" y="130"/>
      <point x="15" y="104"/>
      <point x="15" y="77" type="curve"/>
      <point x="15" y="24"/>
      <point x="71" y="-11"/>
    </contour>
    <contour>
      <point x="193" y="0" type="move" name="bottom"/>
    </contour>
    <contour>
      <point x="253" y="710" type="move" name="top"/>
    </contour>
  </outline>
</glyph>
<glyph name="M" format="1">
  <advance width="980"/>
  <unicode hex="004D"/>
  <outline>
    <contour>
      <point x="35" y="-3" type="line"/>
      <point x="155" y="0" type="line"/>
      <point x="282" y="-3" type="line"/>
      <point x="282" y="22" type="line"/>
      <point x="262" y="24" type="line" smooth="yes"/>
      <point x="196" y="31"/>
      <point x="176" y="41"/>
      <point x="176" y="105" type="curve" smooth="yes"/>
      <point x="176" y="681" type="line"/>
      <point x="159" y="679" type="line"/>
      <point x="434" y="0" type="line"/>
      <point x="453" y="0" type="line"/>
      <point x="765" y="682" type="line"/>
      <point x="749" y="684" type="line"/>
      <point x="749" y="133" type="line" smooth="yes"/>
      <point x="749" y="34"/>
      <point x="732" y="31"/>
      <point x="663" y="24" type="curve" smooth="yes"/>
      <point x="643" y="22" type="line"/>
      <point x="643" y="-3" type="line"/>
      <point x="792" y="0" type="line"/>
      <point x="940" y="-3" type="line"/>
      <point x="940" y="22" type="line"/>
      <point x="920" y="24" type="line" smooth="yes"/>
      <point x="851" y="31"/>
      <point x="834" y="34"/>
      <point x="834" y="133" type="curve" smooth="yes"/>
      <point x="834" y="577" type="line" smooth="yes"/>
      <point x="834" y="676"/>
      <point x="851" y="678"/>
      <point x="920" y="686" type="curve" smooth="yes"/>
      <point x="940" y="688" type="line"/>
      <point x="940" y="713" type="line"/>
      <point x="800" y="710" type="line"/>
      <point x="740" y="710" type="line"/>
      <point x="462" y="101" type="line"/>
      <point x="490" y="101" type="line"/>
      <point x="239" y="710" type="line"/>
      <point x="183" y="710" type="line"/>
      <point x="35" y="713" type="line"/>
      <point x="35" y="688" type="line"/>
      <point x="55" y="686" type="line" smooth="yes"/>
      <point x="124" y="678"/>
      <point x="141" y="676"/>
      <point x="141" y="577" type="curve" smooth="yes"/>
      <point x="141" y="133" type="line" smooth="yes"/>
      <point x="141" y="34"/>
      <point x="124" y="32"/>
      <point x="55" y="24" type="curve" smooth="yes"/>
      <point x="35" y="22" type="line"/>
    </contour>
    <contour>
      <point x="443" y="0" type="move" name="bottom"/>
    </contour>
    <contour>
      <point x="497" y="710" type="move" name="top"/>
    </contour>
  </outline>
</glyph>
<glyph name="Q" format="1">
  <advance width="804"/>
  <unicode hex="0051"/>
  <outline>
    <contour>
      <point x="653" y="-294" type="curve"/>
      <point x="743" y="-294"/>
      <point x="784" y="-233"/>
      <point x="794" y="-124" type="curve"/>
      <point x="774" y="-124" type="line"/>
      <point x="763" y="-200"/>
      <point x="719" y="-221"/>
      <point x="674" y="-221" type="curve"/>
      <point x="623" y="-221"/>
      <point x="573" y="-187"/>
      <point x="524" y="-147" type="curve"/>
      <point x="470" y="-103"/>
      <point x="416" y="-65"/>
      <point x="331" y="-65" type="curve"/>
      <point x="318" y="-65"/>
      <point x="306" y="-65"/>
      <point x="284" y="-74" type="curve"/>
      <point x="294" y="-79" type="line"/>
      <point x="482" y="8" type="line"/>
      <point x="423" y="6" type="line"/>
      <point x="242" y="-77" type="line"/>
      <point x="153" y="-77"/>
      <point x="89" y="-103"/>
      <point x="89" y="-152" type="curve"/>
      <point x="89" y="-174"/>
      <point x="101" y="-185"/>
      <point x="118" y="-185" type="curve"/>
      <point x="140" y="-185"/>
      <point x="161" y="-170"/>
      <point x="180" y="-151" type="curve"/>
      <point x="199" y="-132"/>
      <point x="221" y="-116"/>
      <point x="247" y="-100" type="curve"/>
      <point x="324" y="-104"/>
      <point x="382" y="-138"/>
      <point x="459" y="-202" type="curve"/>
      <point x="505" y="-240"/>
      <point x="558" y="-294"/>
    </contour>
    <component base="O"/>
    <contour>
      <point x="410" y="710" type="move" name="top"/>
    </contour>
  </outline>
</glyph>
<glyph name="S" format="1">
  <advance width="561"/>
  <unicode hex="0053"/>
  <outline>
    <contour>
      <point x="309" y="-11" type="curve" smooth="yes"/>
      <point x="419" y="-11"/>
      <point x="506" y="68"/>
      <point x="506" y="187" type="curve" smooth="yes"/>
      <point x="506" y="300"/>
      <point x="439" y="350"/>
      <point x="329" y="404" type="curve" smooth="yes"/>
      <point x="288" y="424" type="line" smooth="yes"/>
      <point x="209" y="462"/>
      <point x="155" y="499"/>
      <point x="155" y="575" type="curve" smooth="yes"/>
      <point x="155" y="646"/>
      <point x="208" y="696"/>
      <point x="287" y="696" type="curve" smooth="yes"/>
      <point x="366" y="696"/>
      <point x="441" y="630"/>
      <point x="454" y="519" type="curve"/>
      <point x="479" y="519" type="line"/>
      <point x="477" y="616" type="line"/>
      <point x="480" y="712" type="line"/>
      <point x="455" y="712" type="line"/>
      <point x="453" y="690"/>
      <point x="448" y="681"/>
      <point x="436" y="681" type="curve" smooth="yes"/>
      <point x="425" y="681"/>
      <point x="413" y="685"/>
      <point x="395" y="694" type="curve" smooth="yes"/>
      <point x="374" y="705"/>
      <point x="336" y="724"/>
      <point x="282" y="724" type="curve" smooth="yes"/>
      <point x="164" y="724"/>
      <point x="80" y="649"/>
      <point x="80" y="543" type="curve" smooth="yes"/>
      <point x="80" y="452"/>
      <point x="128" y="400"/>
      <point x="228" y="352" type="curve" smooth="yes"/>
      <point x="270" y="332" type="line" smooth="yes"/>
      <point x="373" y="283"/>
      <point x="434" y="235"/>
      <point x="434" y="146" type="curve" smooth="yes"/>
      <point x="434" y="56"/>
      <point x="370" y="18"/>
      <point x="309" y="18" type="curve" smooth="yes"/>
      <point x="197" y="18"/>
      <point x="119" y="111"/>
      <point x="98" y="200" type="curve" smooth="yes"/>
      <point x="87" y="247" type="line"/>
      <point x="62" y="247" type="line"/>
      <point x="65" y="118" type="line"/>
      <point x="60" y="0" type="line"/>
      <point x="85" y="0" type="line"/>
      <point x="88" y="15" type="line" smooth="yes"/>
      <point x="92" y="33"/>
      <point x="97" y="52"/>
      <point x="116" y="52" type="curve" smooth="yes"/>
      <point x="130" y="52"/>
      <point x="148" y="44"/>
      <point x="178" y="28" type="curve" smooth="yes"/>
      <point x="212" y="10"/>
      <point x="256" y="-11"/>
    </contour>
    <contour>
      <point x="313" y="0" type="move" name="bottom"/>
    </contour>
    <contour>
      <point x="285" y="710" type="move" name="top"/>
    </contour>
  </outline>
</glyph>
<glyph name="W" format="1">
  <advance width="1049"/>
  <unicode hex="0057"/>
  <outline>
    <contour>
      <point x="99" y="594" type="curve"/>
      <point x="295" y="-9" type="line"/>
      <point x="327" y="-9" type="line"/>
      <point x="532" y="547" type="line"/>
      <point x="520" y="546" type="line"/>
      <point x="728" y="-9" type="line"/>
      <point x="760" y="-9" type="line"/>
      <point x="952" y="621" type="line" smooth="yes"/>
      <point x="963" y="658"/>
      <point x="996" y="676"/>
      <point x="1040" y="683" type="curve"/>
      <point x="1064" y="687" type="line"/>
      <point x="1064" y="713" type="line"/>
      <point x="958" y="710" type="line"/>
      <point x="826" y="713" type="line"/>
      <point x="826" y="687" type="line"/>
      <point x="859" y="683" type="line" smooth="yes"/>
      <point x="897" y="678"/>
      <point x="918" y="668"/>
      <point x="918" y="639" type="curve"/>
      <point x="918" y="631"/>
      <point x="916" y="621"/>
      <point x="913" y="610" type="curve"/>
      <point x="756" y="95" type="line"/>
      <point x="779" y="95" type="line"/>
      <point x="599" y="582" type="line" smooth="yes"/>
      <point x="592" y="600"/>
      <point x="589" y="616"/>
      <point x="589" y="629" type="curve"/>
      <point x="589" y="662"/>
      <point x="611" y="681"/>
      <point x="654" y="684" type="curve"/>
      <point x="692" y="687" type="line"/>
      <point x="690" y="713" type="line"/>
      <point x="653" y="711" type="line" smooth="yes"/>
      <point x="612" y="709"/>
      <point x="560" y="702"/>
      <point x="545" y="646" type="curve"/>
      <point x="555" y="656" type="line"/>
      <point x="548" y="684"/>
      <point x="520" y="702"/>
      <point x="464" y="708" type="curve"/>
      <point x="422" y="713" type="line"/>
      <point x="418" y="687" type="line"/>
      <point x="458" y="681" type="line" smooth="yes"/>
      <point x="497" y="675"/>
      <point x="521" y="660"/>
      <point x="521" y="629" type="curve"/>
      <point x="521" y="621"/>
      <point x="519" y="611"/>
      <point x="515" y="599" type="curve"/>
      <point x="328" y="91" type="line"/>
      <point x="352" y="91" type="line"/>
      <point x="188" y="598" type="line" smooth="yes"/>
      <point x="183" y="612"/>
      <point x="181" y="623"/>
      <point x="181" y="633" type="curve"/>
      <point x="181" y="674"/>
      <point x="219" y="681"/>
      <point x="255" y="685" type="curve"/>
      <point x="283" y="688" type="line"/>
      <point x="283" y="713" type="line"/>
      <point x="135" y="710" type="line"/>
      <point x="-15" y="713" type="line"/>
      <point x="-15" y="688" type="line"/>
      <point x="8" y="683" type="line" smooth="yes"/>
      <point x="51" y="674"/>
      <point x="81" y="651"/>
    </contour>
    <contour>
      <point x="522" y="0" type="move" name="bottom"/>
    </contour>
    <contour>
      <point x="544" y="710" type="move" name="top"/>
    </contour>
  </outline>
</glyph>
<glyph name="asciicircum" format="1">
  <advance width="510"/>
  <unicode hex="005E"/>
  <outline>
    <contour>
      <point x="232" y="710" type="line"/>
      <point x="50" y="348" type="line"/>
      <point x="100" y="348" type="line"/>
      <point x="266" y="682" type="line"/>
      <point x="238" y="682" type="line"/>
      <point x="410" y="348" type="line"/>
      <point x="460" y="348" type="line"/>
      <point x="272" y="710" type="line"/>
    </contour>
  </outline>
</glyph>
<glyph name="b" format="1">
  <advance width="555"/>
  <unicode hex="0062"/>
  <outline>
    <contour>
      <point x="303" y="-11" type="curve"/>
      <point x="422" y="-11"/>
      <point x="510" y="91"/>
      <point x="510" y="220" type="curve"/>
      <point x="510" y="351"/>
      <point x="422" y="454"/>
      <point x="307" y="454" type="curve"/>
      <point x="239" y="454"/>
      <point x="185" y="418"/>
      <point x="148" y="367" type="curve"/>
      <point x="162" y="350" type="line"/>
      <point x="193" y="390"/>
      <point x="236" y="424"/>
      <point x="297" y="424" type="curve"/>
      <point x="386" y="424"/>
      <point x="430" y="336"/>
      <point x="430" y="220" type="curve"/>
      <point x="430" y="106"/>
      <point x="386" y="19"/>
      <point x="294" y="19" type="curve"/>
      <point x="232" y="19"/>
      <point x="178" y="62"/>
      <point x="161" y="99" type="curve"/>
      <point x="152" y="65" type="line"/>
      <point x="179" y="28"/>
      <point x="236" y="-11"/>
    </contour>
    <contour>
      <point x="98" y="644" type="line"/>
      <point x="98" y="-11" type="line"/>
      <point x="114" y="-11" type="line"/>
      <point x="175" y="57" type="line"/>
      <point x="168" y="80" type="line"/>
      <point x="168" y="644" type="line"/>
    </contour>
    <component base="_part.bdc" xOffset="-20" yOffset="277"/>
    <contour>
      <point x="274" y="0" type="move" name="bottom"/>
    </contour>
    <contour>
      <point x="299" y="433" type="move" name="top"/>
    </contour>
  </outline>
</glyph>
<glyph name="e" format="1">
  <advance width="477"/>
  <unicode hex="0065"/>
  <outline>
    <contour>
      <point x="264" y="-11" type="curve"/>
      <point x="355" y="-11"/>
      <point x="414" y="31"/>
      <point x="442" y="115" type="curve"/>
      <point x="418" y="124" type="line"/>
      <point x="391" y="54"/>
      <point x="340" y="19"/>
      <point x="278" y="19" type="curve"/>
      <point x="177" y="19"/>
      <point x="125" y="110"/>
      <point x="125" y="217" type="curve"/>
      <point x="125" y="342"/>
      <point x="171" y="429"/>
      <point x="267" y="429" type="curve"/>
      <point x="316" y="429"/>
      <point x="364" y="393"/>
      <point x="364" y="335" type="curve"/>
      <point x="364" y="305"/>
      <point x="345" y="268"/>
      <point x="255" y="268" type="curve"/>
      <point x="123" y="268" type="line"/>
      <point x="121" y="245" type="line"/>
      <point x="428" y="245" type="line"/>
      <point x="429" y="249"/>
      <point x="431" y="260"/>
      <point x="431" y="276" type="curve"/>
      <point x="431" y="382"/>
      <point x="369" y="454"/>
      <point x="267" y="454" type="curve"/>
      <point x="145" y="454"/>
      <point x="45" y="351"/>
      <point x="45" y="212" type="curve"/>
      <point x="45" y="81"/>
      <point x="132" y="-11"/>
    </contour>
    <contour>
      <point x="269" y="0" type="move" name="bottom"/>
    </contour>
    <contour>
      <point x="372" y="0" type="move" name="ogonek"/>
    </contour>
    <contour>
      <point x="266" y="436" type="move" name="top"/>
    </contour>
  </outline>
</glyph>
<glyph name="f" format="1">
  <advance width="339"/>
  <unicode hex="0066"/>
  <outline>
    <contour>
      <point x="25" y="-3" type="line"/>
      <point x="148" y="0" type="line"/>
      <point x="271" y="-3" type="line"/>
      <point x="271" y="20" type="line"/>
      <point x="255" y="22" type="line" smooth="yes"/>
      <point x="197" y="29"/>
      <point x="183" y="31"/>
      <point x="183" y="121" type="curve" smooth="yes"/>
      <point x="183" y="550" type="line" smooth="yes"/>
      <point x="183" y="632"/>
      <point x="197" y="699"/>
      <point x="273" y="699" type="curve" smooth="yes"/>
      <point x="290" y="699"/>
      <point x="308" y="692"/>
      <point x="308" y="675" type="curve" smooth="yes"/>
      <point x="308" y="671"/>
      <point x="307" y="667"/>
      <point x="305" y="662" type="curve" smooth="yes"/>
      <point x="302" y="654"/>
      <point x="299" y="645"/>
      <point x="299" y="632" type="curve" smooth="yes"/>
      <point x="299" y="611"/>
      <point x="318" y="590"/>
      <point x="343" y="590" type="curve" smooth="yes"/>
      <point x="370" y="590"/>
      <point x="392" y="608"/>
      <point x="392" y="643" type="curve" smooth="yes"/>
      <point x="392" y="696"/>
      <point x="341" y="724"/>
      <point x="273" y="724" type="curve" smooth="yes"/>
      <point x="168" y="724"/>
      <point x="113" y="672"/>
      <point x="113" y="550" type="curve" smooth="yes"/>
      <point x="113" y="121" type="line" smooth="yes"/>
      <point x="113" y="31"/>
      <point x="99" y="29"/>
      <point x="41" y="22" type="curve" smooth="yes"/>
      <point x="25" y="20" type="line"/>
    </contour>
    <contour>
      <point x="27" y="411" type="line"/>
      <point x="119" y="411" type="line"/>
      <point x="119" y="436" type="line"/>
      <point x="27" y="436" type="line"/>
    </contour>
    <contour>
      <point x="177" y="411" type="line"/>
      <point x="286" y="411" type="line"/>
      <point x="286" y="436" type="line"/>
      <point x="177" y="436" type="line"/>
    </contour>
  </outline>
</glyph>
<glyph name="g" format="1">
  <advance width="554"/>
  <unicode hex="0067"/>
  <outline>
    <contour>
      <point x="252" y="-294" type="curve"/>
      <point x="375" y="-294"/>
      <point x="488" y="-230"/>
      <point x="488" y="-116" type="curve"/>
      <point x="488" y="7"/>
      <point x="387" y="24"/>
      <point x="262" y="30" type="curve"/>
      <point x="218" y="32" type="line" smooth="yes"/>
      <point x="162" y="35"/>
      <point x="112" y="41"/>
      <point x="112" y="83" type="curve"/>
      <point x="112" y="118"/>
      <point x="156" y="137"/>
      <point x="196" y="144" type="curve"/>
      <point x="165" y="156" type="line"/>
      <point x="109" y="143"/>
      <point x="52" y="101"/>
      <point x="52" y="46" type="curve"/>
      <point x="52" y="-28"/>
      <point x="134" y="-39"/>
      <point x="195" y="-42" type="curve"/>
      <point x="297" y="-47" type="line" smooth="yes"/>
      <point x="396" y="-52"/>
      <point x="442" y="-77"/>
      <point x="442" y="-137" type="curve"/>
      <point x="442" y="-223"/>
      <point x="354" y="-269"/>
      <point x="252" y="-269" type="curve"/>
      <point x="160" y="-269"/>
      <point x="82" y="-245"/>
      <point x="82" y="-176" type="curve"/>
      <point x="82" y="-142"/>
      <point x="107" y="-133"/>
      <point x="107" y="-99" type="curve"/>
      <point x="107" y="-74"/>
      <point x="88" y="-61"/>
      <point x="66" y="-61" type="curve"/>
      <point x="32" y="-61"/>
      <point x="10" y="-93"/>
      <point x="10" y="-135" type="curve"/>
      <point x="10" y="-245"/>
      <point x="127" y="-294"/>
    </contour>
    <contour>
      <point x="252" y="132" type="curve"/>
      <point x="356" y="132"/>
      <point x="437" y="203"/>
      <point x="437" y="293" type="curve"/>
      <point x="437" y="383"/>
      <point x="355" y="454"/>
      <point x="252" y="454" type="curve"/>
      <point x="148" y="454"/>
      <point x="67" y="384"/>
      <point x="67" y="293" type="curve"/>
      <point x="67" y="201"/>
      <point x="150" y="132"/>
    </contour>
    <contour>
      <point x="252" y="157" type="curve"/>
      <point x="174" y="157"/>
      <point x="144" y="216"/>
      <point x="144" y="293" type="curve"/>
      <point x="144" y="370"/>
      <point x="174" y="429"/>
      <point x="252" y="429" type="curve"/>
      <point x="330" y="429"/>
      <point x="360" y="370"/>
      <point x="360" y="293" type="curve"/>
      <point x="360" y="216"/>
      <point x="330" y="157"/>
    </contour>
    <contour>
      <point x="503" y="378" type="curve"/>
      <point x="524" y="378"/>
      <point x="546" y="394"/>
      <point x="546" y="422" type="curve"/>
      <point x="546" y="456"/>
      <point x="511" y="479"/>
      <point x="470" y="479" type="curve"/>
      <point x="428" y="479"/>
      <point x="384" y="462"/>
      <point x="356" y="420" type="curve"/>
      <point x="375" y="407" type="line"/>
      <point x="387" y="427"/>
      <point x="407" y="448"/>
      <point x="430" y="448" type="curve"/>
      <point x="447" y="448"/>
      <point x="455" y="436"/>
      <point x="458" y="420" type="curve"/>
      <point x="463" y="394"/>
      <point x="480" y="378"/>
    </contour>
    <contour>
      <point x="251" y="436" type="move" name="top"/>
    </contour>
  </outline>
</glyph>
<glyph name="h" format="1">
  <advance width="582"/>
  <unicode hex="0068"/>
  <outline>
    <contour>
      <point x="15" y="20" type="line"/>
      <point x="15" y="-3" type="line"/>
      <point x="138" y="0" type="line"/>
      <point x="261" y="-3" type="line"/>
      <point x="261" y="20" type="line"/>
      <point x="245" y="22" type="line" smooth="yes"/>
      <point x="187" y="29"/>
      <point x="173" y="31"/>
      <point x="173" y="121" type="curve"/>
      <point x="173" y="640" type="line"/>
      <point x="103" y="640" type="line"/>
      <point x="103" y="121" type="line" smooth="yes"/>
      <point x="103" y="31"/>
      <point x="89" y="29"/>
      <point x="31" y="22" type="curve"/>
    </contour>
    <contour>
      <point x="325" y="20" type="line"/>
      <point x="325" y="-3" type="line"/>
      <point x="448" y="0" type="line"/>
      <point x="571" y="-3" type="line"/>
      <point x="571" y="20" type="line"/>
      <point x="555" y="22" type="line" smooth="yes"/>
      <point x="497" y="29"/>
      <point x="483" y="31"/>
      <point x="483" y="121" type="curve"/>
      <point x="483" y="321" type="line" smooth="yes"/>
      <point x="483" y="406"/>
      <point x="427" y="454"/>
      <point x="336" y="454" type="curve"/>
      <point x="232" y="454"/>
      <point x="161" y="373"/>
      <point x="150" y="315" type="curve"/>
      <point x="171" y="315" type="line"/>
      <point x="186" y="360"/>
      <point x="238" y="424"/>
      <point x="314" y="424" type="curve"/>
      <point x="377" y="424"/>
      <point x="413" y="388"/>
      <point x="413" y="321" type="curve"/>
      <point x="413" y="121" type="line" smooth="yes"/>
      <point x="413" y="31"/>
      <point x="399" y="29"/>
      <point x="341" y="22" type="curve"/>
    </contour>
    <component base="_part.bdc" xOffset="-15" yOffset="277"/>
    <contour>
      <point x="289" y="0" type="move" name="bottom"/>
    </contour>
    <contour>
      <point x="142" y="567" type="move" name="center"/>
    </contour>
    <contour>
      <point x="108" y="710" type="move" name="top"/>
    </contour>
  </outline>
</glyph>
<glyph name="q" format="1">
  <advance width="535"/>
  <unicode hex="0071"/>
  <outline>
    <contour>
      <point x="299" y="-260" type="line"/>
      <point x="299" y="-283" type="line"/>
      <point x="422" y="-280" type="line"/>
      <point x="545" y="-283" type="line"/>
      <point x="545" y="-260" type="line"/>
      <point x="529" y="-258" type="line" smooth="yes"/>
      <point x="471" y="-251"/>
      <point x="457" y="-249"/>
      <point x="457" y="-159" type="curve"/>
      <point x="457" y="449" type="line"/>
      <point x="442" y="449" type="line"/>
      <point x="383" y="385" type="line"/>
      <point x="387" y="365" type="line"/>
      <point x="387" y="-159" type="line" smooth="yes"/>
      <point x="387" y="-249"/>
      <point x="373" y="-251"/>
      <point x="315" y="-258" type="curve"/>
    </contour>
    <contour>
      <point x="248" y="-11" type="curve"/>
      <point x="316" y="-11"/>
      <point x="370" y="25"/>
      <point x="407" y="76" type="curve"/>
      <point x="393" y="93" type="line"/>
      <point x="362" y="53"/>
      <point x="319" y="19"/>
      <point x="258" y="19" type="curve"/>
      <point x="169" y="19"/>
      <point x="125" y="107"/>
      <point x="125" y="223" type="curve"/>
      <point x="125" y="337"/>
      <point x="169" y="424"/>
      <point x="261" y="424" type="curve"/>
      <point x="323" y="424"/>
      <point x="377" y="381"/>
      <point x="394" y="344" type="curve"/>
      <point x="403" y="378" type="line"/>
      <point x="376" y="415"/>
      <point x="319" y="454"/>
      <point x="252" y="454" type="curve"/>
      <point x="133" y="454"/>
      <point x="45" y="352"/>
      <point x="45" y="223" type="curve"/>
      <point x="45" y="92"/>
      <point x="133" y="-11"/>
    </contour>
    <contour>
      <point x="277" y="0" type="move" name="bottom"/>
    </contour>
    <contour>
      <point x="277" y="436" type="move" name="top"/>
    </contour>
  </outline>
</glyph>
<glyph name="v" format="1">
  <advance width="507"/>
  <unicode hex="0076"/>
  <outline>
    <contour>
      <point x="66" y="360" type="curve"/>
      <point x="229" y="0" type="line"/>
      <point x="267" y="0" type="line"/>
      <point x="411" y="336" type="line" smooth="yes"/>
      <point x="431" y="383"/>
      <point x="446" y="405"/>
      <point x="484" y="410" type="curve"/>
      <point x="507" y="413" type="line"/>
      <point x="507" y="436" type="line"/>
      <point x="423" y="433" type="line"/>
      <point x="333" y="436" type="line"/>
      <point x="333" y="413" type="line"/>
      <point x="350" y="411" type="line" smooth="yes"/>
      <point x="382" y="407"/>
      <point x="396" y="398"/>
      <point x="396" y="379" type="curve"/>
      <point x="396" y="370"/>
      <point x="393" y="359"/>
      <point x="387" y="346" type="curve"/>
      <point x="270" y="72" type="line"/>
      <point x="144" y="350" type="line" smooth="yes"/>
      <point x="139" y="362"/>
      <point x="136" y="372"/>
      <point x="136" y="380" type="curve"/>
      <point x="136" y="397"/>
      <point x="146" y="407"/>
      <point x="176" y="411" type="curve"/>
      <point x="192" y="413" type="line"/>
      <point x="192" y="436" type="line"/>
      <point x="90" y="433" type="line"/>
      <point x="-13" y="436" type="line"/>
      <point x="-13" y="413" type="line"/>
      <point x="5" y="411" type="line" smooth="yes"/>
      <point x="40" y="407"/>
      <point x="54" y="386"/>
    </contour>
    <contour>
      <point x="261" y="0" type="move" name="bottom"/>
    </contour>
    <contour>
      <point x="271" y="436" type="move" name="top"/>
    </contour>
  </outline>
</glyph>
<glyph name="w" format="1">
  <advance width="768"/>
  <unicode hex="0077"/>
  <outline>
    <contour>
      <point x="67" y="339" type="curve"/>
      <point x="190" y="0" type="line"/>
      <point x="228" y="0" type="line"/>
      <point x="381" y="349" type="line"/>
      <point x="369" y="349" type="line"/>
      <point x="505" y="0" type="line"/>
      <point x="543" y="0" type="line"/>
      <point x="677" y="339" type="line" smooth="yes"/>
      <point x="691" y="373"/>
      <point x="705" y="405"/>
      <point x="752" y="411" type="curve"/>
      <point x="768" y="413" type="line"/>
      <point x="768" y="436" type="line"/>
      <point x="689" y="433" type="line"/>
      <point x="595" y="436" type="line"/>
      <point x="595" y="413" type="line"/>
      <point x="611" y="411" type="line" smooth="yes"/>
      <point x="644" y="407"/>
      <point x="660" y="397"/>
      <point x="660" y="375" type="curve"/>
      <point x="660" y="367"/>
      <point x="654" y="351"/>
      <point x="651" y="342" type="curve"/>
      <point x="535" y="49" type="line"/>
      <point x="558" y="49" type="line"/>
      <point x="443" y="344" type="line" smooth="yes"/>
      <point x="438" y="357"/>
      <point x="435" y="369"/>
      <point x="435" y="378" type="curve"/>
      <point x="435" y="396"/>
      <point x="445" y="410"/>
      <point x="469" y="412" type="curve"/>
      <point x="484" y="413" type="line"/>
      <point x="484" y="436" type="line"/>
      <point x="438" y="436" type="line" smooth="yes"/>
      <point x="411" y="436"/>
      <point x="368" y="425"/>
      <point x="371" y="390" type="curve"/>
      <point x="379" y="393" type="line"/>
      <point x="370" y="419"/>
      <point x="349" y="436"/>
      <point x="319" y="436" type="curve"/>
      <point x="284" y="436" type="line"/>
      <point x="284" y="413" type="line"/>
      <point x="315" y="412" type="line" smooth="yes"/>
      <point x="342" y="411"/>
      <point x="356" y="396"/>
      <point x="356" y="369" type="curve"/>
      <point x="356" y="358"/>
      <point x="351" y="344"/>
      <point x="344" y="328" type="curve"/>
      <point x="220" y="48" type="line"/>
      <point x="244" y="47" type="line"/>
      <point x="136" y="346" type="line" smooth="yes"/>
      <point x="132" y="357"/>
      <point x="131" y="366"/>
      <point x="131" y="374" type="curve"/>
      <point x="131" y="397"/>
      <point x="147" y="409"/>
      <point x="181" y="412" type="curve"/>
      <point x="191" y="413" type="line"/>
      <point x="191" y="436" type="line"/>
      <point x="93" y="433" type="line"/>
      <point x="-13" y="436" type="line"/>
      <point x="-13" y="413" type="line"/>
      <point x="-2" y="412" type="line" smooth="yes"/>
      <point x="31" y="409"/>
      <point x="51" y="383"/>
    </contour>
    <contour>
      <point x="368" y="0" type="move" name="bottom"/>
    </contour>
    <contour>
      <point x="368" y="436" type="move" name="top"/>
    </contour>
  </outline>
</glyph>
<glyph name="y" format="1">
  <advance width="523"/>
  <unicode hex="0079"/>
  <outline>
    <contour>
      <point x="38" y="-294" type="curve" smooth="yes"/>
      <point x="121" y="-294"/>
      <point x="166" y="-232"/>
      <point x="198" y="-163" type="curve" smooth="yes"/>
      <point x="424" y="330" type="line" smooth="yes"/>
      <point x="443" y="372"/>
      <point x="459" y="404"/>
      <point x="508" y="411" type="curve" smooth="yes"/>
      <point x="523" y="413" type="line"/>
      <point x="523" y="436" type="line"/>
      <point x="443" y="433" type="line"/>
      <point x="347" y="436" type="line"/>
      <point x="347" y="413" type="line"/>
      <point x="363" y="411" type="line" smooth="yes"/>
      <point x="397" y="407"/>
      <point x="412" y="398"/>
      <point x="412" y="378" type="curve" smooth="yes"/>
      <point x="412" y="368"/>
      <point x="408" y="355"/>
      <point x="401" y="339" type="curve" smooth="yes"/>
      <point x="173" y="-152" type="line" smooth="yes"/>
      <point x="145" y="-211"/>
      <point x="119" y="-224"/>
      <point x="95" y="-224" type="curve" smooth="yes"/>
      <point x="79" y="-224"/>
      <point x="67" y="-215"/>
      <point x="58" y="-208" type="curve" smooth="yes"/>
      <point x="49" y="-201"/>
      <point x="39" y="-194"/>
      <point x="21" y="-194" type="curve" smooth="yes"/>
      <point x="-8" y="-194"/>
      <point x="-30" y="-215"/>
      <point x="-30" y="-241" type="curve" smooth="yes"/>
      <point x="-30" y="-268"/>
      <point x="-8" y="-294"/>
    </contour>
    <contour>
      <point x="246" y="-26" type="line"/>
      <point x="284" y="52" type="line"/>
      <point x="151" y="344" type="line" smooth="yes"/>
      <point x="144" y="359"/>
      <point x="140" y="371"/>
      <point x="140" y="380" type="curve" smooth="yes"/>
      <point x="140" y="398"/>
      <point x="152" y="407"/>
      <point x="182" y="411" type="curve" smooth="yes"/>
      <point x="196" y="413" type="line"/>
      <point x="196" y="436" type="line"/>
      <point x="95" y="433" type="line"/>
      <point x="-9" y="436" type="line"/>
      <point x="-9" y="413" type="line"/>
      <point x="14" y="410" type="line" smooth="yes"/>
      <point x="47" y="406"/>
      <point x="59" y="384"/>
      <point x="73" y="354" type="curve" smooth="yes"/>
    </contour>
    <contour>
      <point x="277" y="0" type="move" name="bottom"/>
    </contour>
    <contour>
      <point x="275" y="436" type="move" name="top"/>
    </contour>
  </outline>
</glyph>
<glyph name="z" format="1">
  <advance width="466"/>
  <unicode hex="007A"/>
  <outline>
    <contour>
      <point x="35" y="20" type="line"/>
      <point x="42" y="0" type="line"/>
      <point x="413" y="0" type="line"/>
      <point x="414" y="53" type="line"/>
      <point x="426" y="158" type="line"/>
      <point x="403" y="158" type="line"/>
      <point x="388" y="43"/>
      <point x="321" y="25"/>
      <point x="232" y="25" type="curve"/>
      <point x="124" y="25" type="line"/>
      <point x="428" y="417" type="line"/>
      <point x="421" y="436" type="line"/>
      <point x="75" y="436" type="line"/>
      <point x="64" y="365" type="line"/>
      <point x="42" y="275" type="line"/>
      <point x="65" y="275" type="line"/>
      <point x="87" y="389"/>
      <point x="152" y="412"/>
      <point x="265" y="412" type="curve"/>
      <point x="376" y="412" type="line"/>
      <point x="349" y="426" type="line"/>
    </contour>
    <contour>
      <point x="243" y="0" type="move" name="bottom"/>
    </contour>
    <contour>
      <point x="243" y="436" type="move" name="top"/>
    </contour>
  </outline>
</glyph>
<glyph name="braceleft" format="1">
  <advance width="390"/>
  <unicode hex="007B"/>
  <outline>
    <contour>
      <point x="340" y="-142" type="curve"/>
      <point x="340" y="-119" type="line"/>
      <point x="277" y="-119"/>
      <point x="223" y="-88"/>
      <point x="223" y="-25" type="curve" smooth="yes"/>
      <point x="223" y="33"/>
      <point x="242" y="90"/>
      <point x="242" y="159" type="curve" smooth="yes"/>
      <point x="242" y="239"/>
      <point x="180" y="318"/>
      <point x="108" y="318" type="curve"/>
      <point x="108" y="324" type="line"/>
      <point x="180" y="324"/>
      <point x="242" y="403"/>
      <point x="242" y="483" type="curve" smooth="yes"/>
      <point x="242" y="552"/>
      <point x="223" y="609"/>
      <point x="223" y="667" type="curve" smooth="yes"/>
      <point x="223" y="730"/>
      <point x="277" y="761"/>
      <point x="340" y="761" type="curve"/>
      <point x="340" y="784" type="line"/>
      <point x="231" y="784"/>
      <point x="151" y="700"/>
      <point x="151" y="601" type="curve" smooth="yes"/>
      <point x="151" y="540"/>
      <point x="176" y="501"/>
      <point x="176" y="438" type="curve" smooth="yes"/>
      <point x="176" y="384"/>
      <point x="122" y="332"/>
      <point x="60" y="332" type="curve"/>
      <point x="60" y="309" type="line"/>
      <point x="122" y="309"/>
      <point x="176" y="258"/>
      <point x="176" y="204" type="curve" smooth="yes"/>
      <point x="176" y="141"/>
      <point x="151" y="102"/>
      <point x="151" y="41" type="curve" smooth="yes"/>
      <point x="151" y="-58"/>
      <point x="231" y="-142"/>
    </contour>
  </outline>
</glyph>
<glyph name="currency" format="1">
  <advance width="445"/>
  <unicode hex="00A4"/>
  <outline>
    <contour>
      <point x="223" y="197" type="curve" smooth="yes"/>
      <point x="318" y="197"/>
      <point x="392" y="271"/>
      <point x="392" y="366" type="curve" smooth="yes"/>
      <point x="392" y="461"/>
      <point x="318" y="535"/>
      <point x="223" y="535" type="curve" smooth="yes"/>
      <point x="127" y="535"/>
      <point x="53" y="461"/>
      <point x="53" y="366" type="curve" smooth="yes"/>
      <point x="53" y="271"/>
      <point x="127" y="197"/>
    </contour>
    <contour>
      <point x="66" y="183" type="line"/>
      <point x="143" y="260" type="line"/>
      <point x="117" y="286" type="line"/>
      <point x="40" y="209" type="line"/>
    </contour>
    <contour>
      <point x="223" y="237" type="curve" smooth="yes"/>
      <point x="150" y="237"/>
      <point x="93" y="293"/>
      <point x="93" y="366" type="curve" smooth="yes"/>
      <point x="93" y="439"/>
      <point x="150" y="495"/>
      <point x="223" y="495" type="curve" smooth="yes"/>
      <point x="296" y="495"/>
      <point x="352" y="439"/>
      <point x="352" y="366" type="curve" smooth="yes"/>
      <point x="352" y="293"/>
      <point x="296" y="237"/>
    </contour>
    <contour>
      <point x="380" y="183" type="line"/>
      <point x="405" y="209" type="line"/>
      <point x="329" y="285" type="line"/>
      <point x="304" y="259" type="line"/>
    </contour>
    <contour>
      <point x="115" y="448" type="line"/>
      <point x="141" y="473" type="line"/>
      <point x="65" y="549" type="line"/>
      <point x="40" y="523" type="line"/>
    </contour>
    <contour>
      <point x="329" y="447" type="line"/>
      <point x="405" y="523" type="line"/>
      <point x="380" y="548" type="line"/>
      <point x="304" y="473" type="line"/>
    </contour>
  </outline>
</glyph>
<glyph name="logicalnot" format="1">
  <advance width="554"/>
  <unicode hex="00AC"/>
  <outline>
    <contour>
      <point x="50" y="436" type="line"/>
      <point x="50" y="397" type="line"/>
      <point x="504" y="397" type="line"/>
      <point x="504" y="436" type="line"/>
    </contour>
    <contour>
      <point x="465" y="436" type="line"/>
      <point x="465" y="242" type="line"/>
      <point x="504" y="242" type="line"/>
      <point x="504" y="436" type="line"/>
    </contour>
  </outline>
</glyph>
<glyph name="registered" format="1">
  <advance width="859"/>
  <unicode hex="00AE"/>
  <outline>
    <contour>
      <point x="431" y="-11" type="curve" smooth="yes"/>
      <point x="643" y="-11"/>
      <point x="797" y="153"/>
      <point x="797" y="357" type="curve" smooth="yes"/>
      <point x="797" y="560"/>
      <point x="643" y="724"/>
      <point x="431" y="724" type="curve" smooth="yes"/>
      <point x="216" y="724"/>
      <point x="62" y="560"/>
      <point x="62" y="357" type="curve" smooth="yes"/>
      <point x="62" y="153"/>
      <point x="216" y="-11"/>
    </contour>
    <contour>
      <point x="431" y="28" type="curve" smooth="yes"/>
      <point x="240" y="28"/>
      <point x="104" y="179"/>
      <point x="104" y="357" type="curve" smooth="yes"/>
      <point x="104" y="534"/>
      <point x="240" y="685"/>
      <point x="431" y="685" type="curve" smooth="yes"/>
      <point x="619" y="685"/>
      <point x="755" y="534"/>
      <point x="755" y="357" type="curve" smooth="yes"/>
      <point x="755" y="179"/>
      <point x="619" y="28"/>
    </contour>
    <contour>
      <point x="573" y="173" type="curve" smooth="yes"/>
      <point x="594" y="173"/>
      <point x="616" y="180"/>
      <point x="628" y="185" type="curve"/>
      <point x="625" y="204" type="line"/>
      <point x="608" y="202" type="line" smooth="yes"/>
      <point x="590" y="200"/>
      <point x="576" y="219"/>
      <point x="566" y="268" type="curve"/>
      <point x="558" y="321"/>
      <point x="517" y="351"/>
      <point x="459" y="355" type="curve"/>
      <point x="518" y="363"/>
      <point x="570" y="388"/>
      <point x="570" y="451" type="curve" smooth="yes"/>
      <point x="570" y="519"/>
      <point x="498" y="539"/>
      <point x="417" y="539" type="curve" smooth="yes"/>
      <point x="339" y="539" type="line"/>
      <point x="257" y="541" type="line"/>
      <point x="256" y="523" type="line"/>
      <point x="267" y="521" type="line"/>
      <point x="306" y="517"/>
      <point x="316" y="517"/>
      <point x="316" y="472" type="curve" smooth="yes"/>
      <point x="315" y="247" type="line" smooth="yes"/>
      <point x="315" y="202"/>
      <point x="306" y="201"/>
      <point x="267" y="197" type="curve" smooth="yes"/>
      <point x="256" y="196" type="line"/>
      <point x="256" y="177" type="line"/>
      <point x="347" y="179" type="line"/>
      <point x="440" y="177" type="line"/>
      <point x="440" y="196" type="line"/>
      <point x="429" y="197" type="line" smooth="yes"/>
      <point x="387" y="201"/>
      <point x="377" y="202"/>
      <point x="377" y="247" type="curve" smooth="yes"/>
      <point x="377" y="351" type="line"/>
      <point x="387" y="351" type="line" smooth="yes"/>
      <point x="484" y="349"/>
      <point x="499" y="292"/>
      <point x="508" y="239" type="curve" smooth="yes"/>
      <point x="513" y="202"/>
      <point x="532" y="173"/>
    </contour>
    <contour>
      <point x="377" y="372" type="line"/>
      <point x="377" y="519" type="line"/>
      <point x="418" y="519" type="line" smooth="yes"/>
      <point x="477" y="519"/>
      <point x="497" y="493"/>
      <point x="497" y="448" type="curve" smooth="yes"/>
      <point x="497" y="397"/>
      <point x="475" y="372"/>
      <point x="410" y="372" type="curve" smooth="yes"/>
    </contour>
    <contour>
      <point x="431" y="179" type="move" name="bottom"/>
    </contour>
    <contour>
      <point x="431" y="539" type="move" name="top"/>
    </contour>
  </outline>
</glyph>
<glyph name="macron" format="1">
  <advance width="327"/>
  <unicode hex="00AF"/>
  <outline>
    <contour>
      <point x="50" y="641" type="line"/>
      <point x="50" y="601" type="line"/>
      <point x="277" y="601" type="line"/>
      <point x="277" y="641" type="line"/>
    </contour>
  </outline>
</glyph>
<glyph name="degree" format="1">
  <advance width="303"/>
  <unicode hex="00B0"/>
  <outline>
    <contour>
      <point x="152" y="442" type="curve"/>
      <point x="224" y="442"/>
      <point x="283" y="501"/>
      <point x="283" y="574" type="curve"/>
      <point x="283" y="646"/>
      <point x="224" y="705"/>
      <point x="152" y="705" type="curve"/>
      <point x="79" y="705"/>
      <point x="20" y="646"/>
      <point x="20" y="574" type="curve"/>
      <point x="20" y="501"/>
      <point x="79" y="442"/>
    </contour>
    <contour>
      <point x="152" y="479" type="curve"/>
      <point x="99" y="479"/>
      <point x="57" y="521"/>
      <point x="57" y="574" type="curve"/>
      <point x="57" y="626"/>
      <point x="99" y="668"/>
      <point x="152" y="668" type="curve"/>
      <point x="204" y="668"/>
      <point x="246" y="626"/>
      <point x="246" y="574" type="curve"/>
      <point x="246" y="521"/>
      <point x="204" y="479"/>
    </contour>
  </outline>
</glyph>
<glyph name="plusminus" format="1">
  <advance width="598"/>
  <unicode hex="00B1"/>
  <outline>
    <contour>
      <point x="299" y="223" type="line"/>
      <point x="347" y="223" type="line"/>
      <point x="347" y="328" type="line"/>
      <point x="489" y="328" type="line"/>
      <point x="489" y="372" type="line"/>
      <point x="347" y="372" type="line"/>
      <point x="347" y="476" type="line"/>
      <point x="299" y="476" type="line"/>
      <point x="299" y="372" type="line"/>
      <point x="157" y="372" type="line"/>
      <point x="157" y="328" type="line"/>
      <point x="299" y="328" type="line"/>
    </contour>
    <contour>
      <point x="157" y="101" type="line"/>
      <point x="490" y="101" type="line"/>
      <point x="490" y="141" type="line"/>
      <point x="157" y="141" type="line"/>
    </contour>
  </outline>
</glyph>
<glyph name="acute" format="1">
  <advance width="211"/>
  <unicode hex="00B4"/>
  <outline>
    <contour>
      <point x="89" y="668" type="curve"/>
      <point x="50" y="520" type="line"/>
      <point x="72" y="520" type="line"/>
      <point x="146" y="639" type="line" smooth="yes"/>
      <point x="156" y="655"/>
      <point x="163" y="672"/>
      <point x="163" y="688" type="curve"/>
      <point x="163" y="712"/>
      <point x="148" y="724"/>
      <point x="132" y="724" type="curve"/>
      <point x="116" y="724"/>
      <point x="100" y="710"/>
    </contour>
  </outline>
</glyph>
<glyph name="paragraph" format="1">
  <advance width="600"/>
  <unicode hex="00B6"/>
  <outline>
    <contour>
      <point x="298" y="329" type="curve"/>
      <point x="298" y="-186" type="line"/>
      <point x="340" y="-186" type="line"/>
      <point x="340" y="676" type="line"/>
      <point x="430" y="676" type="line"/>
      <point x="430" y="-186" type="line"/>
      <point x="471" y="-186" type="line"/>
      <point x="471" y="641" type="line" smooth="yes"/>
      <point x="471" y="677"/>
      <point x="508" y="685"/>
      <point x="561" y="685" type="curve"/>
      <point x="561" y="712" type="line"/>
      <point x="367" y="710" type="line"/>
      <point x="276" y="712" type="line"/>
      <point x="139" y="708"/>
      <point x="63" y="628"/>
      <point x="63" y="522" type="curve"/>
      <point x="63" y="396"/>
      <point x="153" y="329"/>
    </contour>
  </outline>
</glyph>
<glyph name="cedilla" format="1">
  <advance width="306"/>
  <unicode hex="00B8"/>
  <outline>
    <contour>
      <point x="157" y="-292" type="curve"/>
      <point x="219" y="-292"/>
      <point x="273" y="-243"/>
      <point x="273" y="-169" type="curve"/>
      <point x="273" y="-115"/>
      <point x="238" y="-72"/>
      <point x="189" y="-60" type="curve"/>
      <point x="210" y="0" type="line"/>
      <point x="180" y="0" type="line"/>
      <point x="161" y="-57" type="line"/>
      <point x="125" y="-57"/>
      <point x="91" y="-75"/>
      <point x="72" y="-109" type="curve"/>
      <point x="92" y="-122" type="line"/>
      <point x="107" y="-99"/>
      <point x="131" y="-82"/>
      <point x="154" y="-82" type="curve"/>
      <point x="198" y="-82"/>
      <point x="222" y="-120"/>
      <point x="222" y="-166" type="curve"/>
      <point x="222" y="-214"/>
      <point x="198" y="-264"/>
      <point x="151" y="-264" type="curve"/>
      <point x="110" y="-264"/>
      <point x="82" y="-234"/>
      <point x="76" y="-203" type="curve"/>
      <point x="54" y="-210" type="line"/>
      <point x="63" y="-249"/>
      <point x="97" y="-292"/>
    </contour>
  </outline>
</glyph>
<glyph name="germandbls" format="1">
  <advance width="593"/>
  <unicode hex="00DF"/>
  <outline>
    <contour>
      <point x="401" y="-11" type="curve"/>
      <point x="498" y="-11"/>
      <point x="573" y="70"/>
      <point x="573" y="140" type="curve"/>
      <point x="573" y="229"/>
      <point x="493" y="284"/>
      <point x="443" y="318" type="curve"/>
      <point x="387" y="356"/>
      <point x="354" y="396"/>
      <point x="354" y="426" type="curve"/>
      <point x="354" y="456"/>
      <point x="388" y="489"/>
      <point x="420" y="520" type="curve"/>
      <point x="447" y="546"/>
      <point x="471" y="574"/>
      <point x="471" y="608" type="curve"/>
      <point x="471" y="672"/>
      <point x="400" y="724"/>
      <point x="304" y="724" type="curve"/>
      <point x="190" y="724"/>
      <point x="113" y="675"/>
      <point x="113" y="498" type="curve"/>
      <point x="113" y="121" type="line" smooth="yes"/>
      <point x="113" y="31"/>
      <point x="99" y="29"/>
      <point x="41" y="22" type="curve"/>
      <point x="25" y="20" type="line"/>
      <point x="25" y="-3" type="line"/>
      <point x="148" y="0" type="line"/>
      <point x="194" y="0" type="line"/>
      <point x="187" y="33"/>
      <point x="184" y="65"/>
      <point x="184" y="121" type="curve"/>
      <point x="184" y="550" type="line" smooth="yes"/>
      <point x="184" y="632"/>
      <point x="211" y="699"/>
      <point x="290" y="699" type="curve"/>
      <point x="344" y="699"/>
      <point x="391" y="665"/>
      <point x="391" y="586" type="curve"/>
      <point x="391" y="538"/>
      <point x="359" y="493"/>
      <point x="335" y="469" type="curve"/>
      <point x="309" y="443"/>
      <point x="288" y="421"/>
      <point x="288" y="389" type="curve"/>
      <point x="288" y="344"/>
      <point x="340" y="302"/>
      <point x="386" y="271" type="curve"/>
      <point x="442" y="233"/>
      <point x="495" y="192"/>
      <point x="495" y="123" type="curve"/>
      <point x="495" y="65"/>
      <point x="458" y="14"/>
      <point x="391" y="14" type="curve"/>
      <point x="349" y="14"/>
      <point x="328" y="31"/>
      <point x="328" y="59" type="curve"/>
      <point x="328" y="66"/>
      <point x="329" y="74"/>
      <point x="331" y="83" type="curve"/>
      <point x="333" y="90"/>
      <point x="335" y="101"/>
      <point x="335" y="107" type="curve"/>
      <point x="335" y="132"/>
      <point x="312" y="149"/>
      <point x="289" y="149" type="curve"/>
      <point x="259" y="149"/>
      <point x="241" y="126"/>
      <point x="241" y="93" type="curve"/>
      <point x="241" y="47"/>
      <point x="289" y="-11"/>
    </contour>
    <contour>
      <point x="27" y="436" type="line"/>
      <point x="27" y="413" type="line"/>
      <point x="133" y="413" type="line"/>
      <point x="133" y="436" type="line"/>
    </contour>
  </outline>
</glyph>
<glyph name="ae" format="1">
  <advance width="756"/>
  <unicode hex="00E6"/>
  <outline>
    <contour>
      <point x="536" y="-11" type="curve"/>
      <point x="624" y="-11"/>
      <point x="683" y="31"/>
      <point x="711" y="117" type="curve"/>
      <point x="687" y="124" type="line"/>
      <point x="661" y="55"/>
      <point x="609" y="21"/>
      <point x="550" y="21" type="curve"/>
      <point x="454" y="21"/>
      <point x="395" y="105"/>
      <point x="395" y="222" type="curve"/>
      <point x="395" y="245" type="line" smooth="yes"/>
      <point x="395" y="345"/>
      <point x="452" y="429"/>
      <point x="538" y="429" type="curve"/>
      <point x="585" y="429"/>
      <point x="636" y="393"/>
      <point x="636" y="335" type="curve"/>
      <point x="636" y="305"/>
      <point x="617" y="268"/>
      <point x="524" y="268" type="curve"/>
      <point x="392" y="268" type="line"/>
      <point x="390" y="245" type="line"/>
      <point x="697" y="245" type="line"/>
      <point x="699" y="251"/>
      <point x="702" y="262"/>
      <point x="702" y="275" type="curve"/>
      <point x="702" y="383"/>
      <point x="638" y="454"/>
      <point x="538" y="454" type="curve"/>
      <point x="457" y="454"/>
      <point x="402" y="413"/>
      <point x="370" y="364" type="curve"/>
      <point x="387" y="363" type="line"/>
      <point x="372" y="412"/>
      <point x="335" y="454"/>
      <point x="243" y="454" type="curve"/>
      <point x="166" y="454"/>
      <point x="69" y="424"/>
      <point x="69" y="353" type="curve"/>
      <point x="69" y="328"/>
      <point x="87" y="310"/>
      <point x="110" y="310" type="curve"/>
      <point x="136" y="310"/>
      <point x="157" y="325"/>
      <point x="157" y="350" type="curve"/>
      <point x="157" y="360"/>
      <point x="155" y="369"/>
      <point x="152" y="377" type="curve"/>
      <point x="150" y="383"/>
      <point x="148" y="390"/>
      <point x="148" y="396" type="curve"/>
      <point x="148" y="421"/>
      <point x="202" y="429"/>
      <point x="238" y="429" type="curve"/>
      <point x="317" y="429"/>
      <point x="325" y="373"/>
      <point x="325" y="306" type="curve"/>
      <point x="325" y="114" type="line"/>
      <point x="363" y="42"/>
      <point x="435" y="-11"/>
    </contour>
    <contour>
      <point x="169" y="-11" type="curve"/>
      <point x="233" y="-11"/>
      <point x="303" y="31"/>
      <point x="343" y="103" type="curve"/>
      <point x="328" y="130" type="line"/>
      <point x="313" y="78"/>
      <point x="249" y="24"/>
      <point x="199" y="24" type="curve"/>
      <point x="159" y="24"/>
      <point x="128" y="49"/>
      <point x="128" y="87" type="curve"/>
      <point x="128" y="170"/>
      <point x="241" y="233"/>
      <point x="330" y="270" type="curve"/>
      <point x="329" y="289" type="line"/>
      <point x="243" y="257"/>
      <point x="50" y="180"/>
      <point x="50" y="83" type="curve"/>
      <point x="50" y="18"/>
      <point x="100" y="-11"/>
    </contour>
  </outline>
</glyph>
<glyph name="thorn" format="1">
  <advance width="600"/>
  <unicode hex="00FE"/>
  <outline>
    <contour>
      <point x="25" y="-283" type="line"/>
      <point x="148" y="-280" type="line"/>
      <point x="271" y="-283" type="line"/>
      <point x="271" y="-260" type="line"/>
      <point x="255" y="-258" type="line" smooth="yes"/>
      <point x="197" y="-251"/>
      <point x="183" y="-249"/>
      <point x="183" y="-159" type="curve" smooth="yes"/>
      <point x="183" y="724" type="line"/>
      <point x="128" y="714"/>
      <point x="80" y="709"/>
      <point x="25" y="709" type="curve"/>
      <point x="25" y="686" type="line"/>
      <point x="79" y="686"/>
      <point x="113" y="680"/>
      <point x="113" y="608" type="curve" smooth="yes"/>
      <point x="113" y="-159" type="line" smooth="yes"/>
      <point x="113" y="-249"/>
      <point x="99" y="-251"/>
      <point x="41" y="-258" type="curve" smooth="yes"/>
      <point x="25" y="-260" type="line"/>
    </contour>
    <contour>
      <point x="315" y="-11" type="curve" smooth="yes"/>
      <point x="437" y="-11"/>
      <point x="525" y="91"/>
      <point x="525" y="220" type="curve" smooth="yes"/>
      <point x="525" y="351"/>
      <point x="437" y="454"/>
      <point x="315" y="454" type="curve" smooth="yes"/>
      <point x="257" y="454"/>
      <point x="209" y="429"/>
      <point x="177" y="387" type="curve"/>
      <point x="177" y="348" type="line"/>
      <point x="207" y="396"/>
      <point x="254" y="429"/>
      <point x="315" y="429" type="curve" smooth="yes"/>
      <point x="401" y="429"/>
      <point x="445" y="339"/>
      <point x="445" y="220" type="curve" smooth="yes"/>
      <point x="445" y="106"/>
      <point x="401" y="19"/>
      <point x="315" y="19" type="curve" smooth="yes"/>
      <point x="253" y="19"/>
      <point x="206" y="51"/>
      <point x="177" y="99" type="curve"/>
      <point x="175" y="59" type="line"/>
      <point x="209" y="14"/>
      <point x="256" y="-11"/>
    </contour>
    <contour>
      <point x="300" y="0" type="move" name="bottom"/>
    </contour>
    <contour>
      <point x="300" y="436" type="move" name="top"/>
    </contour>
  </outline>
</glyph>
<glyph name="eng" format="1">
  <advance width="595"/>
  <unicode hex="014B"/>
  <outline>
    <contour>
      <point x="363" y="-294" type="curve" smooth="yes"/>
      <point x="442" y="-294"/>
      <point x="500" y="-237"/>
      <point x="500" y="-152" type="curve" smooth="yes"/>
      <point x="500" y="335" type="line" smooth="yes"/>
      <point x="500" y="406"/>
      <point x="460" y="454"/>
      <point x="365" y="454" type="curve" smooth="yes"/>
      <point x="215" y="454"/>
      <point x="177" y="313"/>
      <point x="162" y="236" type="curve"/>
      <point x="187" y="257" type="line"/>
      <point x="198" y="313"/>
      <point x="246" y="424"/>
      <point x="343" y="424" type="curve" smooth="yes"/>
      <point x="406" y="424"/>
      <point x="430" y="388"/>
      <point x="430" y="330" type="curve" smooth="yes"/>
      <point x="430" y="-152" type="line" smooth="yes"/>
      <point x="430" y="-205"/>
      <point x="425" y="-273"/>
      <point x="380" y="-273" type="curve" smooth="yes"/>
      <point x="365" y="-273"/>
      <point x="356" y="-266"/>
      <point x="356" y="-251" type="curve" smooth="yes"/>
      <point x="356" y="-236"/>
      <point x="360" y="-232"/>
      <point x="360" y="-217" type="curve" smooth="yes"/>
      <point x="360" y="-194"/>
      <point x="342" y="-167"/>
      <point x="312" y="-167" type="curve" smooth="yes"/>
      <point x="282" y="-167"/>
      <point x="264" y="-190"/>
      <point x="264" y="-223" type="curve" smooth="yes"/>
      <point x="264" y="-269"/>
      <point x="300" y="-294"/>
    </contour>
    <component base="idotless" xOffset="7"/>
    <contour>
      <point x="309" y="436" type="move" name="top"/>
    </contour>
  </outline>
</glyph>
<glyph name="OE" format="1">
  <advance width="1010"/>
  <unicode hex="0152"/>
  <outline>
    <contour>
      <point x="404" y="-11" type="curve" smooth="yes"/>
      <point x="431" y="-11"/>
      <point x="458" y="-8"/>
      <point x="484" y="-2" type="curve"/>
      <point x="569" y="0" type="line"/>
      <point x="960" y="0" type="line"/>
      <point x="963" y="90" type="line"/>
      <point x="970" y="210" type="line"/>
      <point x="945" y="210" type="line"/>
      <point x="932" y="52"/>
      <point x="900" y="25"/>
      <point x="774" y="25" type="curve" smooth="yes"/>
      <point x="682" y="25" type="line" smooth="yes"/>
      <point x="629" y="25"/>
      <point x="614" y="54"/>
      <point x="614" y="107" type="curve" smooth="yes"/>
      <point x="614" y="683" type="line"/>
      <point x="714" y="683" type="line" smooth="yes"/>
      <point x="862" y="683"/>
      <point x="894" y="669"/>
      <point x="913" y="546" type="curve"/>
      <point x="937" y="546" type="line"/>
      <point x="929" y="638" type="line"/>
      <point x="927" y="710" type="line"/>
      <point x="511" y="710" type="line"/>
      <point x="480" y="719"/>
      <point x="447" y="725"/>
      <point x="414" y="725" type="curve" smooth="yes"/>
      <point x="227" y="725"/>
      <point x="62" y="572"/>
      <point x="62" y="355" type="curve" smooth="yes"/>
      <point x="62" y="141"/>
      <point x="209" y="-11"/>
    </contour>
    <contour>
      <point x="404" y="19" type="curve" smooth="yes"/>
      <point x="243" y="19"/>
      <point x="164" y="145"/>
      <point x="164" y="355" type="curve" smooth="yes"/>
      <point x="164" y="558"/>
      <point x="242" y="695"/>
      <point x="414" y="695" type="curve" smooth="yes"/>
      <point x="489" y="695"/>
      <point x="528" y="672"/>
      <point x="528" y="577" type="curve" smooth="yes"/>
      <point x="528" y="133" type="line" smooth="yes"/>
      <point x="528" y="37"/>
      <point x="497" y="19"/>
    </contour>
    <contour>
      <point x="765" y="226" type="curve"/>
      <point x="790" y="226" type="line"/>
      <point x="787" y="374" type="line"/>
      <point x="790" y="508" type="line"/>
      <point x="765" y="508" type="line"/>
      <point x="760" y="408"/>
      <point x="733" y="387"/>
      <point x="694" y="387" type="curve" smooth="yes"/>
      <point x="608" y="387" type="line"/>
      <point x="608" y="362" type="line"/>
      <point x="694" y="362" type="line" smooth="yes"/>
      <point x="740" y="362"/>
      <point x="765" y="324"/>
    </contour>
  </outline>
</glyph>
<glyph name="Fhook" format="1">
  <advance width="607"/>
  <unicode hex="0191"/>
  <outline>
    <contour>
      <point x="66" y="-290" type="curve"/>
      <point x="141" y="-290"/>
      <point x="231" y="-273"/>
      <point x="231" y="-138" type="curve"/>
      <point x="231" y="353" type="line"/>
      <point x="354" y="353" type="line" smooth="yes"/>
      <point x="400" y="353"/>
      <point x="425" y="314"/>
      <point x="425" y="216" type="curve"/>
      <point x="450" y="216" type="line"/>
      <point x="447" y="364" type="line"/>
      <point x="450" y="498" type="line"/>
      <point x="425" y="498" type="line"/>
      <point x="420" y="399"/>
      <point x="393" y="378"/>
      <point x="354" y="378" type="curve"/>
      <point x="231" y="378" type="line"/>
      <point x="231" y="683" type="line"/>
      <point x="395" y="683" type="line" smooth="yes"/>
      <point x="461" y="683"/>
      <point x="567" y="683"/>
      <point x="578" y="548" type="curve"/>
      <point x="602" y="548" type="line"/>
      <point x="593" y="637" type="line"/>
      <point x="590" y="710" type="line"/>
      <point x="188" y="710" type="line"/>
      <point x="40" y="713" type="line"/>
      <point x="40" y="688" type="line"/>
      <point x="60" y="686" type="line" smooth="yes"/>
      <point x="129" y="678"/>
      <point x="146" y="676"/>
      <point x="146" y="577" type="curve"/>
      <point x="146" y="-156" type="line" smooth="yes"/>
      <point x="146" y="-180"/>
      <point x="146" y="-266"/>
      <point x="72" y="-266" type="curve"/>
      <point x="45" y="-266"/>
      <point x="37" y="-251"/>
      <point x="37" y="-238" type="curve"/>
      <point x="37" y="-231"/>
      <point x="39" y="-225"/>
      <point x="42" y="-217" type="curve"/>
      <point x="45" y="-210"/>
      <point x="48" y="-202"/>
      <point x="48" y="-190" type="curve"/>
      <point x="48" y="-166"/>
      <point x="28" y="-149"/>
      <point x="3" y="-149" type="curve"/>
      <point x="-32" y="-149"/>
      <point x="-49" y="-175"/>
      <point x="-49" y="-202" type="curve"/>
      <point x="-49" y="-255"/>
      <point x="7" y="-290"/>
    </contour>
    <contour>
      <point x="337" y="710" type="move" name="top"/>
    </contour>
  </outline>
</glyph>
<glyph name="jdotless" format="1">
  <advance width="276"/>
  <unicode hex="0237"/>
  <outline>
    <contour>
      <point x="52" y="-294" type="curve" smooth="yes"/>
      <point x="131" y="-294"/>
      <point x="189" y="-237"/>
      <point x="189" y="-152" type="curve" smooth="yes"/>
      <point x="189" y="451" type="line"/>
      <point x="134" y="441"/>
      <point x="86" y="436"/>
      <point x="31" y="436" type="curve"/>
      <point x="31" y="413" type="line"/>
      <point x="85" y="413"/>
      <point x="119" y="407"/>
      <point x="119" y="335" type="curve" smooth="yes"/>
      <point x="119" y="-152" type="line" smooth="yes"/>
      <point x="119" y="-205"/>
      <point x="114" y="-273"/>
      <point x="69" y="-273" type="curve" smooth="yes"/>
      <point x="54" y="-273"/>
      <point x="41" y="-264"/>
      <point x="41" y="-246" type="curve" smooth="yes"/>
      <point x="41" y="-240"/>
      <point x="42" y="-235"/>
      <point x="45" y="-226" type="curve" smooth="yes"/>
      <point x="47" y="-220"/>
      <point x="49" y="-213"/>
      <point x="49" y="-207" type="curve" smooth="yes"/>
      <point x="49" y="-189"/>
      <point x="36" y="-167"/>
      <point x="6" y="-167" type="curve" smooth="yes"/>
      <point x="-29" y="-167"/>
      <point x="-47" y="-193"/>
      <point x="-47" y="-223" type="curve" smooth="yes"/>
      <point x="-47" y="-266"/>
      <point x="-11" y="-294"/>
    </contour>
    <contour>
      <point x="146" y="0" type="move" name="bottom"/>
    </contour>
    <contour>
      <point x="149" y="430" type="move" name="top"/>
    </contour>
  </outline>
</glyph>
<glyph name="commaaccentcomb" format="1">
  <advance width="232"/>
  <unicode hex="0326"/>
  <outline>
    <component base="quoteright" xScale="0.753" yScale="0.753" xOffset="27" yOffset="-631"/>
    <contour>
      <point x="106" y="0" type="move" name="_bottom"/>
    </contour>
  </outline>
</glyph>
<glyph name="strokeshortcomb" format="1">
  <advance width="275"/>
  <unicode hex="0335"/>
  <outline>
    <contour>
      <point x="10" y="556" type="line"/>
      <point x="265" y="556" type="line"/>
      <point x="265" y="581" type="line"/>
      <point x="10" y="581" type="line"/>
    </contour>
    <contour>
      <point x="138" y="569" type="move" name="_center"/>
    </contour>
  </outline>
</glyph>
<glyph name="slashshortcomb" format="1">
  <advance width="471"/>
  <unicode hex="0337"/>
  <outline>
    <contour>
      <point x="42" y="-12" type="line"/>
      <point x="99" y="-12" type="line"/>
      <point x="523" y="453" type="line"/>
      <point x="467" y="453" type="line"/>
    </contour>
    <contour>
      <point x="283" y="220" type="move" name="_center"/>
    </contour>
  </outline>
</glyph>
<glyph name="quoteright" format="1">
  <advance width="257"/>
  <unicode hex="2019"/>
  <outline>
    <contour>
      <point x="84" y="476" type="curve"/>
      <point x="97" y="455" type="line"/>
      <point x="154" y="492"/>
      <point x="197" y="532"/>
      <point x="197" y="613" type="curve"/>
      <point x="197" y="680"/>
      <point x="165" y="722"/>
      <point x="117" y="722" type="curve"/>
      <point x="78" y="722"/>
      <point x="52" y="696"/>
      <point x="52" y="657" type="curve"/>
      <point x="52" y="622"/>
      <point x="76" y="598"/>
      <point x="111" y="598" type="curve"/>
      <point x="135" y="598"/>
      <point x="158" y="616"/>
      <point x="158" y="635" type="curve"/>
      <point x="158" y="644"/>
      <point x="154" y="650"/>
      <point x="154" y="654" type="curve"/>
      <point x="154" y="655"/>
      <point x="154" y="656"/>
      <point x="156" y="657" type="curve"/>
      <point x="168" y="663"/>
      <point x="175" y="635"/>
      <point x="175" y="611" type="curve"/>
      <point x="175" y="548"/>
      <point x="132" y="508"/>
    </contour>
  </outline>
</glyph>
<glyph name="fraction" format="1">
  <advance width="291"/>
  <unicode hex="2044"/>
  <outline>
    <contour>
      <point x="381" y="722" type="line"/>
      <point x="-110" y="0" type="line"/>
      <point x="-57" y="0" type="line"/>
      <point x="434" y="722" type="line"/>
    </contour>
  </outline>
</glyph>
<glyph name="emptyset" format="1">
  <advance width="695"/>
  <unicode hex="2205"/>
  <outline>
    <contour>
      <point x="106" y="-21" type="line"/>
      <point x="136" y="-42" type="line"/>
      <point x="190" y="35" type="line"/>
      <point x="236" y="6"/>
      <point x="290" y="-10"/>
      <point x="348" y="-10" type="curve"/>
      <point x="514" y="-10"/>
      <point x="650" y="126"/>
      <point x="650" y="294" type="curve"/>
      <point x="650" y="389"/>
      <point x="605" y="474"/>
      <point x="535" y="530" type="curve"/>
      <point x="586" y="603" type="line"/>
      <point x="556" y="622" type="line"/>
      <point x="506" y="550" type="line"/>
      <point x="460" y="579"/>
      <point x="406" y="595"/>
      <point x="348" y="595" type="curve"/>
      <point x="181" y="595"/>
      <point x="45" y="459"/>
      <point x="45" y="294" type="curve"/>
      <point x="45" y="197"/>
      <point x="90" y="112"/>
      <point x="160" y="56" type="curve"/>
    </contour>
    <contour>
      <point x="484" y="520" type="curve"/>
      <point x="181" y="87" type="line"/>
      <point x="122" y="135"/>
      <point x="85" y="210"/>
      <point x="85" y="294" type="curve"/>
      <point x="85" y="440"/>
      <point x="202" y="558"/>
      <point x="348" y="558" type="curve"/>
      <point x="398" y="558"/>
      <point x="445" y="544"/>
    </contour>
    <contour>
      <point x="348" y="27" type="curve"/>
      <point x="298" y="27"/>
      <point x="251" y="41"/>
      <point x="211" y="65" type="curve"/>
      <point x="513" y="499" type="line"/>
      <point x="572" y="451"/>
      <point x="610" y="377"/>
      <point x="610" y="294" type="curve"/>
      <point x="610" y="145"/>
      <point x="493" y="27"/>
    </contour>
  </outline>
</glyph>
<glyph name="notequal" format="1">
  <advance width="600"/>
  <unicode hex="2260"/>
  <outline>
    <contour>
      <point x="419" y="485" type="line"/>
      <point x="154" y="122" type="line"/>
      <point x="204" y="122" type="line"/>
      <point x="468" y="485" type="line"/>
    </contour>
    <component base="equal"/>
  </outline>
</glyph>
<glyph name="lozenge" format="1">
  <advance width="600"/>
  <unicode hex="25CA"/>
  <outline>
    <contour>
      <point x="35" y="373" type="line"/>
      <point x="271" y="-11" type="line"/>
      <point x="321" y="-11" type="line"/>
      <point x="559" y="373" type="line"/>
      <point x="323" y="746" type="line"/>
      <point x="274" y="746" type="line"/>
    </contour>
    <contour>
      <point x="504" y="374" type="line"/>
      <point x="297" y="37" type="line"/>
      <point x="91" y="373" type="line"/>
      <point x="298" y="697" type="line"/>
    </contour>
  </outline>
</glyph>
<glyph name="fl" format="1">
  <advance width="573"/>
  <unicode hex="FB02"/>
  <outline>
    <contour>
      <point x="324" y="20" type="line"/>
      <point x="324" y="-3" type="line"/>
      <point x="435" y="0" type="line"/>
      <point x="558" y="-3" type="line"/>
      <point x="558" y="20" type="line"/>
      <point x="542" y="22" type="line" smooth="yes"/>
      <point x="484" y="29"/>
      <point x="470" y="31"/>
      <point x="470" y="121" type="curve"/>
      <point x="470" y="140" type="line"/>
      <point x="400" y="140" type="line"/>
      <point x="400" y="121" type="line" smooth="yes"/>
      <point x="400" y="31"/>
      <point x="386" y="29"/>
      <point x="340" y="22" type="curve"/>
    </contour>
    <component base="_part.fl" xOffset="-12"/>
  </outline>
</glyph>
<glyph name="_part.bdc-n" format="1">
  <advance width="603"/>
  <outline>
    <contour>
      <point x="327" y="20" type="line"/>
      <point x="327" y="-3" type="line"/>
      <point x="450" y="0" type="line"/>
      <point x="573" y="-3" type="line"/>
      <point x="573" y="20" type="line"/>
      <point x="557" y="22" type="line" smooth="yes"/>
      <point x="499" y="29"/>
      <point x="485" y="31"/>
      <point x="485" y="121" type="curve"/>
      <point x="485" y="335" type="line" smooth="yes"/>
      <point x="485" y="406"/>
      <point x="445" y="454"/>
      <point x="350" y="454" type="curve"/>
      <point x="283" y="454"/>
      <point x="240" y="426"/>
      <point x="210" y="387" type="curve"/>
      <point x="173" y="340"/>
      <point x="155" y="278"/>
      <point x="147" y="236" type="curve"/>
      <point x="172" y="257" type="line"/>
      <point x="183" y="313"/>
      <point x="231" y="424"/>
      <point x="328" y="424" type="curve"/>
      <point x="391" y="424"/>
      <point x="415" y="388"/>
      <point x="415" y="330" type="curve"/>
      <point x="415" y="121" type="line" smooth="yes"/>
      <point x="415" y="31"/>
      <point x="401" y="29"/>
      <point x="343" y="22" type="curve"/>
    </contour>
  </outline>
</glyph>
<glyph name="_part.jambage" format="1">
  <advance width="600"/>
  <outline>
    <contour>
      <point x="152" y="301" type="curve"/>
      <point x="162" y="258" type="line"/>
      <point x="164" y="301"/>
      <point x="204" y="424"/>
      <point x="323" y="426" type="curve"/>
      <point x="394" y="427"/>
      <point x="405" y="370"/>
      <point x="405" y="331" type="curve"/>
      <point x="475" y="331" type="line"/>
      <point x="475" y="402"/>
      <point x="435" y="450"/>
      <point x="333" y="450" type="curve"/>
      <point x="194" y="450"/>
      <point x="153" y="314"/>
    </contour>
  </outline>
</glyph>
 y="424" type="curve"/>
      <point x="389" y="424"/>
      <point x="425" y="388"/>
      <point x="425" y="321" type="curve"/>
      <point x="425" y="121" type="line" smooth="yes"/>
      <point x="425" y="31"/>
      <point x="411" y="29"/>
      <point x="353" y="22" type="curve"/>
    </contour>
  </outline>
</glyph>
<glyph name="_part.quoteright" format="1">
  <advance width="570"/>
  <outline>
    <contour>
      <point x="113" y="45" type="line"/>
      <point x="190" y="96"/>
      <point x="257" y="155"/>
      <point x="257" y="264" type="curve" smooth="yes"/>
      <point x="257" y="353"/>
      <point x="209" y="410"/>
      <point x="145" y="410" type="curve" smooth="yes"/>
      <point x="91" y="410"/>
      <point x="57" y="375"/>
      <point x="57" y="323" type="curve" smooth="yes"/>
      <point x="57" y="277"/>
      <point x="88" y="243"/>
      <point x="136" y="243" type="curve" smooth="yes"/>
      <point x="174" y="243"/>
      <point x="203" y="273"/>
      <point x="203" y="311" type="curve" smooth="yes"/>
      <point x="203" y="320"/>
      <point x="201" y="329"/>
      <point x="198" y="339" type="curve" smooth="yes"/>
      <point x="197" y="342"/>
      <point x="197" y="347"/>
      <point x="201" y="347" type="curve" smooth="yes"/>
      <point x="211" y="347"/>
      <point x="224" y="300"/>
      <point x="224" y="261" type="curve" smooth="yes"/>
      <point x="224" y="176"/>
      <point x="164" y="111"/>
      <point x="98" y="71" type="curve"/>
    </contour>
  </outline>
</glyph>
<glyph name="braceleft.sc" format="1">
  <advance width="340"/>
  <outline>
    <contour>
      <point x="290" y="-145" type="curve"/>
      <point x="290" y="-122" type="line"/>
      <point x="245" y="-122"/>
      <point x="207" y="-99"/>
      <point x="207" y="-53" type="curve"/>
      <point x="207" y="-8"/>
      <point x="222" y="36"/>
      <point x="222" y="90" type="curve"/>
      <point x="222" y="152"/>
      <point x="166" y="214"/>
      <point x="100" y="214" type="curve"/>
      <point x="100" y="219" type="line"/>
      <point x="166" y="219"/>
      <point x="222" y="280"/>
      <point x="222" y="343" type="curve"/>
      <point x="222" y="397"/>
      <point x="207" y="443"/>
      <point x="207" y="486" type="curve"/>
      <point x="207" y="532"/>
      <point x="245" y="555"/>
      <point x="290" y="555" type="curve"/>
      <point x="290" y="578" type="line"/>
      <point x="200" y="578"/>
      <point x="135" y="512"/>
      <point x="135" y="435" type="curve"/>
      <point x="135" y="387"/>
      <point x="155" y="357"/>
      <point x="155" y="308" type="curve"/>
      <point x="155" y="267"/>
      <point x="111" y="228"/>
      <point x="60" y="228" type="curve"/>
      <point x="60" y="205" type="line"/>
      <point x="111" y="205"/>
      <point x="155" y="166"/>
      <point x="155" y="125" type="curve"/>
      <point x="155" y="76"/>
      <point x="135" y="46"/>
      <point x="135" y="-2" type="curve"/>
      <point x="135" y="-79"/>
      <point x="200" y="-145"/>
    </contour>
  </outline>
</glyph>
<glyph name="bracketleft.sc" format="1">
  <advance width="294"/>
  <outline>
    <contour>
      <point x="50" y="-140" type="line"/>
      <point x="234" y="-140" type="line"/>
      <point x="234" y="-102" type="line"/>
      <point x="93" y="-102" type="line"/>
      <point x="93" y="537" type="line"/>
      <point x="234" y="537" type="line"/>
      <point x="234" y="575" type="line"/>
      <point x="50" y="575" type="line"/>
    </contour>
  </outline>
</glyph>
<glyph name="brevecomb.sc" format="1">
  <advance width="299"/>
  <outline>
    <component base="breve" yOffset="241"/>
    <contour>
      <point x="150" y="710" type="move" name="_top"/>
    </contour>
    <contour>
      <point x="152" y="908" type="move" name="top"/>
    </contour>
  </outline>
</glyph>
<glyph name="caron.alt" format="1">
  <advance width="171"/>
  <outline>
    <contour>
      <point x="51" y="666" type="curve"/>
      <point x="32" y="509" type="line"/>
      <point x="56" y="509" type="line"/>
      <point x="108" y="655" type="line" smooth="yes"/>
      <point x="119" y="687"/>
      <point x="120" y="724"/>
      <point x="87" y="724" type="curve"/>
      <point x="70" y="724"/>
      <point x="56" y="712"/>
    </contour>
  </outline>
</glyph>
<glyph name="caroncomb.alt.sc" format="1">
  <advance width="182"/>
  <outline>
    <component base="caron.alt" xScale="0.86" yScale="0.8" xOffset="4" yOffset="154"/>
    <contour>
      <point x="78" y="436" type="move" name="_top"/>
    </contour>
    <contour>
      <point x="58" y="436" type="move" name="_topright"/>
    </contour>
    <contour>
      <point x="80" y="651" type="move" name="top"/>
    </contour>
  </outline>
</glyph>
<glyph name="caroncomb.sc" format="1">
  <advance width="310"/>
  <outline>
    <component base="caron" yScale="0.944" yOffset="268"/>
    <contour>
      <point x="154" y="710" type="move" name="_top"/>
    </contour>
    <contour>
      <point x="154" y="908" type="move" name="top"/>
    </contour>
  </outline>
</glyph>
<glyph name="dieresiscomb.sc" format="1">
  <advance width="376"/>
  <outline>
    <component base="dieresis" yOffset="264"/>
    <contour>
      <point x="210" y="710" type="move" name="_top"/>
    </contour>
    <contour>
      <point x="213" y="908" type="move" name="top"/>
    </contour>
  </outline>
</glyph>
<glyph name="e.sups" format="1">
  <advance width="384"/>
  <outline>
    <contour>
      <point x="218" y="288" type="curve"/>
      <point x="292" y="288"/>
      <point x="341" y="322"/>
      <point x="364" y="388" type="curve"/>
      <point x="340" y="396" type="line"/>
      <point x="318" y="339"/>
      <point x="277" y="313"/>
      <point x="229" y="313" type="curve"/>
      <point x="145" y="313"/>
      <point x="103" y="383"/>
      <point x="103" y="466" type="curve"/>
      <point x="103" y="556"/>
      <point x="139" y="628"/>
      <point x="218" y="628" type="curve"/>
      <point x="257" y="628"/>
      <point x="295" y="601"/>
      <point x="295" y="558" type="curve"/>
      <point x="295" y="523"/>
      <point x="264" y="506"/>
      <point x="208" y="506" type="curve"/>
      <point x="101" y="506" type="line"/>
      <point x="100" y="484" type="line"/>
      <point x="352" y="484" type="line"/>
      <point x="356" y="493"/>
      <point x="357" y="501"/>
      <point x="357" y="512" type="curve"/>
      <point x="357" y="597"/>
      <point x="302" y="651"/>
      <point x="218" y="651" type="curve"/>
      <point x="113" y="651"/>
      <point x="30" y="569"/>
      <point x="30" y="462" type="curve"/>
      <point x="30" y="359"/>
      <point x="105" y="288"/>
    </contour>
  </outline>
</glyph>
<glyph name="eight.sups" format="1">
  <advance width="368"/>
  <outline>
    <contour>
      <point x="184" y="291" type="curve" smooth="yes"/>
      <point x="282" y="291"/>
      <point x="333" y="352"/>
      <point x="333" y="407" type="curve" smooth="yes"/>
      <point x="333" y="458"/>
      <point x="294" y="501"/>
      <point x="233" y="518" type="curve"/>
      <point x="289" y="533"/>
      <point x="324" y="569"/>
      <point x="324" y="614" type="curve" smooth="yes"/>
      <point x="324" y="663"/>
      <point x="276" y="717"/>
      <point x="187" y="717" type="curve" smooth="yes"/>
      <point x="105" y="717"/>
      <point x="52" y="663"/>
      <point x="52" y="614" type="curve" smooth="yes"/>
      <point x="52" y="570"/>
      <point x="84" y="535"/>
      <point x="137" y="519" type="curve"/>
      <point x="75" y="503"/>
      <point x="35" y="459"/>
      <point x="35" y="407" type="curve" smooth="yes"/>
      <point x="35" y="352"/>
      <point x="86" y="291"/>
    </contour>
    <contour>
      <point x="184" y="312" type="curve" smooth="yes"/>
      <point x="132" y="312"/>
      <point x="109" y="341"/>
      <point x="109" y="407" type="curve" smooth="yes"/>
      <point x="109" y="472"/>
      <point x="134" y="507"/>
      <point x="184" y="507" type="curve" smooth="yes"/>
      <point x="234" y="507"/>
      <point x="259" y="472"/>
      <point x="259" y="407" type="curve" smooth="yes"/>
      <point x="259" y="341"/>
      <point x="237" y="312"/>
    </contour>
    <contour>
      <point x="187" y="528" type="curve" smooth="yes"/>
      <point x="146" y="528"/>
      <point x="123" y="559"/>
      <point x="123" y="614" type="curve" smooth="yes"/>
      <point x="123" y="664"/>
      <point x="141" y="697"/>
      <point x="187" y="697" type="curve" smooth="yes"/>
      <point x="234" y="697"/>
      <point x="252" y="664"/>
      <point x="252" y="614" type="curve" smooth="yes"/>
      <point x="252" y="559"/>
      <point x="229" y="528"/>
    </contour>
  </outline>
</glyph>
<glyph name="endash.case" format="1">
  <advance width="554"/>
  <outline>
    <contour>
      <point x="50" y="342" type="line"/>
      <point x="50" y="302" type="line"/>
      <point x="504" y="302" type="line"/>
      <point x="504" y="342" type="line"/>
    </contour>
  </outline>
</glyph>
<glyph name="exclam.sc" format="1">
  <advance width="221"/>
  <outline>
    <contour>
      <point x="94" y="165" type="curve"/>
      <point x="126" y="165" type="line"/>
      <point x="128" y="250"/>
      <point x="140" y="332"/>
      <point x="151" y="415" type="curve" smooth="yes"/>
      <point x="156" y="453"/>
      <point x="134" y="469"/>
      <point x="111" y="469" type="curve" smooth="yes"/>
      <point x="87" y="469"/>
      <point x="66" y="453"/>
      <point x="71" y="415" type="curve" smooth="yes"/>
      <point x="82" y="332"/>
      <point x="92" y="249"/>
    </contour>
    <component base="period.sc"/>
  </outline>
</glyph>
<glyph name="f_h.liga" format="1">
  <advance width="879"/>
  <outline>
    <contour>
      <point x="318" y="20" type="line"/>
      <point x="318" y="-3" type="line"/>
      <point x="433" y="0" type="line"/>
      <point x="435" y="0" type="line"/>
      <point x="558" y="-3" type="line"/>
      <point x="558" y="20" type="line"/>
      <point x="542" y="22" type="line" smooth="yes"/>
      <point x="484" y="29"/>
      <point x="470" y="31"/>
      <point x="470" y="121" type="curve"/>
      <point x="470" y="640" type="line"/>
      <point x="400" y="640" type="line"/>
      <point x="400" y="121" type="line" smooth="yes"/>
      <point x="400" y="31"/>
      <point x="387" y="29"/>
      <point x="333" y="22" type="curve"/>
    </contour>
    <contour>
      <point x="622" y="20" type="line"/>
      <point x="622" y="-3" type="line"/>
      <point x="745" y="0" type="line"/>
      <point x="868" y="-3" type="line"/>
      <point x="868" y="20" type="line"/>
      <point x="852" y="22" type="line" smooth="yes"/>
      <point x="794" y="29"/>
      <point x="780" y="31"/>
      <point x="780" y="121" type="curve"/>
      <point x="780" y="321" type="line" smooth="yes"/>
      <point x="780" y="406"/>
      <point x="724" y="454"/>
      <point x="633" y="454" type="curve"/>
      <point x="529" y="454"/>
      <point x="458" y="373"/>
      <point x="447" y="315" type="curve"/>
      <point x="468" y="315" type="line"/>
      <point x="483" y="360"/>
      <point x="535" y="424"/>
      <point x="611" y="424" type="curve"/>
      <point x="674" y="424"/>
      <point x="710" y="388"/>
      <point x="710" y="321" type="curve"/>
      <point x="710" y="121" type="line" smooth="yes"/>
      <point x="710" y="31"/>
      <point x="696" y="29"/>
      <point x="638" y="22" type="curve"/>
    </contour>
    <component base="_part.fl" xOffset="-12"/>
  </outline>
</glyph>
<glyph name="four.sups" format="1">
  <advance width="324"/>
  <outline>
    <contour>
      <point x="110" y="319" type="line"/>
      <point x="111" y="294" type="line"/>
      <point x="218" y="296" type="line"/>
      <point x="303" y="294" type="line"/>
      <point x="304" y="319" type="line"/>
      <point x="292" y="320" type="line" smooth="yes"/>
      <point x="255" y="323"/>
      <point x="251" y="328"/>
      <point x="251" y="373" type="curve"/>
      <point x="251" y="395" type="line"/>
      <point x="300" y="395" type="line"/>
      <point x="300" y="417" type="line"/>
      <point x="251" y="417" type="line"/>
      <point x="251" y="547" type="line"/>
      <point x="229" y="547" type="line"/>
      <point x="214" y="534"/>
      <point x="198" y="524"/>
      <point x="183" y="520" type="curve"/>
      <point x="183" y="417" type="line"/>
      <point x="22" y="417" type="line"/>
      <point x="22" y="401" type="line"/>
      <point x="285" y="702" type="line"/>
      <point x="285" y="710" type="line"/>
      <point x="179" y="710" type="line"/>
      <point x="137" y="630"/>
      <point x="67" y="484"/>
      <point x="0" y="406" type="curve"/>
      <point x="0" y="395" type="line"/>
      <point x="183" y="395" type="line"/>
      <point x="183" y="373" type="line" smooth="yes"/>
      <point x="183" y="328"/>
      <point x="179" y="324"/>
      <point x="132" y="320" type="curve"/>
    </contour>
  </outline>
</glyph>
<glyph name="gravecomb.case" format="1">
  <advance width="207"/>
  <outline>
    <component base="acutecomb.case" xScale="-1" xOffset="207"/>
    <contour>
      <point x="151" y="710" type="move" name="_top"/>
    </contour>
    <contour>
      <point x="91" y="908" type="move" name="top"/>
    </contour>
  </outline>
</glyph>
<glyph name="h.sc" format="1">
  <advance width="627"/>
  <outline>
    <contour>
      <point x="30" y="20" type="line"/>
      <point x="30" y="-3" type="line"/>
      <point x="153" y="0" type="line"/>
      <point x="276" y="-3" type="line"/>
      <point x="276" y="20" type="line"/>
      <point x="260" y="22" type="line" smooth="yes"/>
      <point x="202" y="29"/>
      <point x="188" y="31"/>
      <point x="188" y="121" type="curve"/>
      <point x="188" y="334" type="line" smooth="yes"/>
      <point x="188" y="424"/>
      <point x="202" y="426"/>
      <point x="260" y="433" type="curve"/>
      <point x="276" y="435" type="line"/>
      <point x="276" y="458" type="line"/>
      <point x="153" y="455" type="line"/>
      <point x="152" y="455" type="line"/>
      <point x="29" y="458" type="line"/>
      <point x="29" y="435" type="line"/>
      <point x="45" y="433" type="line" smooth="yes"/>
      <point x="103" y="426"/>
      <point x="117" y="424"/>
      <point x="117" y="334" type="curve"/>
      <point x="117" y="121" type="line" smooth="yes"/>
      <point x="117" y="31"/>
      <point x="104" y="29"/>
      <point x="46" y="22" type="curve"/>
    </contour>
    <contour>
      <point x="182" y="237" type="line"/>
      <point x="182" y="212" type="line"/>
      <point x="446" y="212" type="line"/>
      <point x="446" y="237" type="line"/>
    </contour>
    <contour>
      <point x="352" y="20" type="line"/>
      <point x="352" y="-3" type="line"/>
      <point x="475" y="0" type="line"/>
      <point x="598" y="-3" type="line"/>
      <point x="598" y="20" type="line"/>
      <point x="582" y="22" type="line" smooth="yes"/>
      <point x="524" y="29"/>
      <point x="510" y="31"/>
      <point x="510" y="121" type="curve"/>
      <point x="510" y="334" type="line" smooth="yes"/>
      <point x="510" y="424"/>
      <point x="524" y="426"/>
      <point x="582" y="433" type="curve"/>
      <point x="598" y="435" type="line"/>
      <point x="598" y="458" type="line"/>
      <point x="475" y="455" type="line"/>
      <point x="352" y="458" type="line"/>
      <point x="352" y="435" type="line"/>
      <point x="368" y="433" type="line" smooth="yes"/>
      <point x="426" y="426"/>
      <point x="440" y="424"/>
      <point x="440" y="334" type="curve"/>
      <point x="440" y="121" type="line" smooth="yes"/>
      <point x="440" y="31"/>
      <point x="426" y="29"/>
      <point x="368" y="22" type="curve"/>
    </contour>
    <contour>
      <point x="314" y="0" type="move" name="bottom"/>
    </contour>
    <contour>
      <point x="314" y="327" type="move" name="center"/>
    </contour>
    <contour>
      <point x="314" y="455" type="move" name="top"/>
    </contour>
    <contour>
      <point x="49" y="455" type="move" name="topleft"/>
    </contour>
  </outline>
</glyph>
<glyph name="hyphen.case" format="1">
  <advance width="387"/>
  <outline>
    <contour>
      <point x="60" y="306" type="line"/>
      <point x="327" y="306" type="line"/>
      <point x="327" y="346" type="line"/>
      <point x="60" y="346" type="line"/>
    </contour>
  </outline>
</glyph>
<glyph name="l.sc" format="1">
  <advance width="473"/>
  <outline>
    <contour>
      <point x="29" y="20" type="line"/>
      <point x="29" y="-3" type="line"/>
      <point x="152" y="0" type="line"/>
      <point x="439" y="-2" type="line"/>
      <point x="446" y="163" type="line"/>
      <point x="423" y="163" type="line"/>
      <point x="415" y="73"/>
      <point x="384" y="25"/>
      <point x="305" y="25" type="curve"/>
      <point x="250" y="25" type="line" smooth="yes"/>
      <point x="194" y="25"/>
      <point x="187" y="60"/>
      <point x="187" y="119" type="curve"/>
      <point x="187" y="334" type="line" smooth="yes"/>
      <point x="187" y="424"/>
      <point x="201" y="426"/>
      <point x="259" y="433" type="curve"/>
      <point x="275" y="435" type="line"/>
      <point x="275" y="458" type="line"/>
      <point x="152" y="455" type="line"/>
      <point x="29" y="458" type="line"/>
      <point x="29" y="435" type="line"/>
      <point x="45" y="433" type="line" smooth="yes"/>
      <point x="103" y="426"/>
      <point x="117" y="424"/>
      <point x="117" y="334" type="curve"/>
      <point x="117" y="121" type="line" smooth="yes"/>
      <point x="117" y="31"/>
      <point x="103" y="29"/>
      <point x="45" y="22" type="curve"/>
    </contour>
    <contour>
      <point x="240" y="0" type="move" name="bottom"/>
    </contour>
    <contour>
      <point x="170" y="228" type="move" name="center"/>
    </contour>
    <contour>
      <point x="160" y="455" type="move" name="top"/>
    </contour>
    <contour>
      <point x="346" y="179" type="move" name="topright"/>
    </contour>
  </outline>
</glyph>
<glyph name="macroncomb.case" format="1">
  <advance width="327"/>
  <outline>
    <component base="macron" yOffset="233"/>
    <contour>
      <point x="167" y="710" type="move" name="_top"/>
    </contour>
    <contour>
      <point x="164" y="908" type="move" name="top"/>
    </contour>
  </outline>
</glyph>
<glyph name="macroncomb.sc" format="1">
  <advance width="327"/>
  <outline>
    <component base="macron" yOffset="246"/>
    <contour>
      <point x="167" y="710" type="move" name="_top"/>
    </contour>
    <contour>
      <point x="164" y="908" type="move" name="top"/>
    </contour>
  </outline>
</glyph>
<glyph name="n.sc" format="1">
  <advance width="554"/>
  <outline>
    <contour>
      <point x="434" y="0" type="curve"/>
      <point x="459" y="0" type="line"/>
      <point x="459" y="334" type="line" smooth="yes"/>
      <point x="459" y="423"/>
      <point x="473" y="425"/>
      <point x="531" y="432" type="curve" smooth="yes"/>
      <point x="547" y="434" type="line"/>
      <point x="547" y="457" type="line"/>
      <point x="447" y="455" type="line"/>
      <point x="346" y="457" type="line"/>
      <point x="346" y="434" type="line"/>
      <point x="362" y="432" type="line" smooth="yes"/>
      <point x="420" y="425"/>
      <point x="434" y="423"/>
      <point x="434" y="334" type="curve" smooth="yes"/>
      <point x="434" y="135" type="line"/>
      <point x="391" y="184"/>
      <point x="212" y="388"/>
      <point x="159" y="455" type="curve"/>
      <point x="18" y="457" type="line"/>
      <point x="19" y="434" type="line"/>
      <point x="27" y="434" type="line" smooth="yes"/>
      <point x="65" y="434"/>
      <point x="91" y="415"/>
      <point x="111" y="396" type="curve" smooth="yes"/>
      <point x="180" y="330"/>
      <point x="389" y="88"/>
    </contour>
    <contour>
      <point x="0" y="-3" type="line"/>
      <point x="101" y="-1" type="line"/>
      <point x="201" y="-3" type="line"/>
      <point x="201" y="20" type="line"/>
      <point x="185" y="22" type="line" smooth="yes"/>
      <point x="127" y="29"/>
      <point x="113" y="31"/>
      <point x="113" y="121" type="curve" smooth="yes"/>
      <point x="113" y="400" type="line"/>
      <point x="88" y="423" type="line"/>
      <point x="88" y="121" type="line" smooth="yes"/>
      <point x="88" y="31"/>
      <point x="74" y="29"/>
      <point x="16" y="22" type="curve" smooth="yes"/>
      <point x="0" y="20" type="line"/>
    </contour>
    <contour>
      <point x="261" y="0" type="move" name="bottom"/>
    </contour>
    <contour>
      <point x="261" y="455" type="move" name="top"/>
    </contour>
  </outline>
</glyph>
<glyph name="oe.sc" format="1">
  <advance width="794"/>
  <outline>
    <contour>
      <point x="304" y="-11" type="curve"/>
      <point x="343" y="-11"/>
      <point x="374" y="-8"/>
      <point x="400" y="-5" type="curve"/>
      <point x="423" y="-2"/>
      <point x="441" y="0"/>
      <point x="458" y="0" type="curve"/>
      <point x="750" y="0" type="line"/>
      <point x="757" y="144" type="line"/>
      <point x="736" y="144" type="line"/>
      <point x="718" y="63"/>
      <point x="709" y="27"/>
      <point x="631" y="27" type="curve"/>
      <point x="565" y="27" type="line" smooth="yes"/>
      <point x="513" y="27"/>
      <point x="499" y="45"/>
      <point x="499" y="78" type="curve"/>
      <point x="499" y="429" type="line"/>
      <point x="592" y="429" type="line" smooth="yes"/>
      <point x="684" y="429"/>
      <point x="696" y="404"/>
      <point x="716" y="343" type="curve"/>
      <point x="735" y="343" type="line"/>
      <point x="728" y="455" type="line"/>
      <point x="495" y="455" type="line" smooth="yes"/>
      <point x="456" y="455"/>
      <point x="429" y="458"/>
      <point x="401" y="462" type="curve"/>
      <point x="373" y="466"/>
      <point x="332" y="469"/>
      <point x="304" y="469" type="curve"/>
      <point x="179" y="469"/>
      <point x="47" y="376"/>
      <point x="47" y="228" type="curve"/>
      <point x="47" y="88"/>
      <point x="157" y="-11"/>
    </contour>
    <contour>
      <point x="304" y="19" type="curve"/>
      <point x="185" y="19"/>
      <point x="127" y="111"/>
      <point x="127" y="228" type="curve"/>
      <point x="127" y="345"/>
      <point x="172" y="439"/>
      <point x="304" y="439" type="curve"/>
      <point x="399" y="439"/>
      <point x="435" y="388"/>
      <point x="435" y="307" type="curve"/>
      <point x="435" y="137" type="line" smooth="yes"/>
      <point x="435" y="55"/>
      <point x="395" y="19"/>
    </contour>
    <contour>
      <point x="625" y="134" type="curve"/>
      <point x="647" y="134" type="line"/>
      <point x="645" y="237" type="line"/>
      <point x="647" y="326" type="line"/>
      <point x="625" y="326" type="line"/>
      <point x="622" y="263"/>
      <point x="605" y="247"/>
      <point x="582" y="247" type="curve"/>
      <point x="493" y="247" type="line"/>
      <point x="493" y="223" type="line"/>
      <point x="579" y="223" type="line" smooth="yes"/>
      <point x="608" y="223"/>
      <point x="625" y="199"/>
    </contour>
  </outline>
</glyph>
<glyph name="ogonekcomb.case" format="1">
  <advance width="298"/>
  <outline>
    <component base="ogonek"/>
    <contour>
      <point x="186" y="0" type="move" name="_ogonek"/>
    </contour>
  </outline>
</glyph>
<glyph name="one.lf" format="1">
  <advance width="377"/>
  <outline>
    <contour>
      <point x="47" y="22" type="line"/>
      <point x="47" y="-3" type="line"/>
      <point x="200" y="0" type="line"/>
      <point x="353" y="-3" type="line"/>
      <point x="353" y="22" type="line"/>
      <point x="333" y="24" type="line" smooth="yes"/>
      <point x="257" y="32"/>
      <point x="239" y="34"/>
      <point x="239" y="133" type="curve"/>
      <point x="239" y="715" type="line"/>
      <point x="201" y="715" type="line"/>
      <point x="150" y="694"/>
      <point x="122" y="675"/>
      <point x="45" y="666" type="curve"/>
      <point x="45" y="636" type="line"/>
      <point x="79" y="633" type="line" smooth="yes"/>
      <point x="144" y="627"/>
      <point x="163" y="609"/>
      <point x="163" y="552" type="curve"/>
      <point x="163" y="133" type="line" smooth="yes"/>
      <point x="163" y="34"/>
      <point x="143" y="32"/>
      <point x="67" y="24" type="curve"/>
    </contour>
  </outline>
</glyph>
<glyph name="perthousand.lf" format="1">
  <advance width="1007"/>
  <outline>
    <contour>
      <point x="819" y="-10" type="curve"/>
      <point x="906" y="-10"/>
      <point x="962" y="44"/>
      <point x="962" y="129" type="curve"/>
      <point x="962" y="213"/>
      <point x="907" y="267"/>
      <point x="819" y="267" type="curve"/>
      <point x="734" y="267"/>
      <point x="678" y="213"/>
      <point x="678" y="129" type="curve"/>
      <point x="678" y="44"/>
      <point x="734" y="-10"/>
    </contour>
    <contour>
      <point x="819" y="13" type="curve"/>
      <point x="767" y="13"/>
      <point x="743" y="48"/>
      <point x="743" y="129" type="curve"/>
      <point x="743" y="209"/>
      <point x="767" y="244"/>
      <point x="819" y="244" type="curve"/>
      <point x="873" y="244"/>
      <point x="897" y="212"/>
      <point x="897" y="129" type="curve"/>
      <point x="897" y="48"/>
      <point x="873" y="13"/>
    </contour>
    <component base="percent.lf"/>
  </outline>
</glyph>
<glyph name="r.sups" format="1">
  <advance width="310"/>
  <outline>
    <contour>
      <point x="13" y="295" type="line"/>
      <point x="119" y="297" type="line"/>
      <point x="224" y="295" type="line"/>
      <point x="224" y="318" type="line"/>
      <point x="208" y="319" type="line"/>
      <point x="160" y="325"/>
      <point x="151" y="326"/>
      <point x="151" y="391" type="curve" smooth="yes"/>
      <point x="151" y="509" type="line"/>
      <point x="156" y="543"/>
      <point x="167" y="568"/>
      <point x="177" y="586" type="curve" smooth="yes"/>
      <point x="189" y="609"/>
      <point x="206" y="623"/>
      <point x="219" y="623" type="curve" smooth="yes"/>
      <point x="223" y="623"/>
      <point x="227" y="621"/>
      <point x="227" y="616" type="curve" smooth="yes"/>
      <point x="227" y="609"/>
      <point x="224" y="605"/>
      <point x="224" y="593" type="curve" smooth="yes"/>
      <point x="224" y="580"/>
      <point x="238" y="560"/>
      <point x="265" y="560" type="curve" smooth="yes"/>
      <point x="288" y="560"/>
      <point x="305" y="578"/>
      <point x="305" y="604" type="curve" smooth="yes"/>
      <point x="305" y="633"/>
      <point x="281" y="651"/>
      <point x="244" y="651" type="curve" smooth="yes"/>
      <point x="193" y="651"/>
      <point x="163" y="622"/>
      <point x="141" y="556" type="curve"/>
      <point x="151" y="646" type="line"/>
      <point x="93" y="638"/>
      <point x="56" y="635"/>
      <point x="13" y="635" type="curve"/>
      <point x="13" y="614" type="line"/>
      <point x="68" y="614"/>
      <point x="86" y="605"/>
      <point x="86" y="553" type="curve" smooth="yes"/>
      <point x="86" y="391" type="line" smooth="yes"/>
      <point x="86" y="326"/>
      <point x="77" y="325"/>
      <point x="29" y="319" type="curve"/>
      <point x="13" y="318" type="line"/>
    </contour>
    <contour>
      <point x="167" y="297" type="move" name="bottom"/>
    </contour>
    <contour>
      <point x="167" y="637" type="move" name="top"/>
    </contour>
  </outline>
</glyph>
<glyph name="ringcomb.case" format="1">
  <advance width="269"/>
  <outline>
    <component base="ring" xOffset="1" yOffset="256"/>
    <contour>
      <point x="135" y="710" type="move" name="_top"/>
    </contour>
    <contour>
      <point x="137" y="908" type="move" name="top"/>
    </contour>
  </outline>
</glyph>
<glyph name="six.lf" format="1">
  <advance width="527"/>
  <outline>
    <contour>
      <point x="265" y="-11" type="curve" smooth="yes"/>
      <point x="417" y="-11"/>
      <point x="482" y="107"/>
      <point x="482" y="221" type="curve" smooth="yes"/>
      <point x="482" y="357"/>
      <point x="385" y="429"/>
      <point x="289" y="429" type="curve" smooth="yes"/>
      <point x="232" y="429"/>
      <point x="173" y="404"/>
      <point x="133" y="341" type="curve"/>
      <point x="134" y="417"/>
      <point x="139" y="480"/>
      <point x="149" y="531" type="curve" smooth="yes"/>
      <point x="172" y="644"/>
      <point x="228" y="696"/>
      <point x="300" y="696" type="curve" smooth="yes"/>
      <point x="332" y="696"/>
      <point x="369" y="682"/>
      <point x="369" y="656" type="curve" smooth="yes"/>
      <point x="369" y="638"/>
      <point x="350" y="630"/>
      <point x="350" y="607" type="curve" smooth="yes"/>
      <point x="350" y="586"/>
      <point x="365" y="562"/>
      <point x="396" y="562" type="curve" smooth="yes"/>
      <point x="429" y="562"/>
      <point x="444" y="587"/>
      <point x="444" y="620" type="curve" smooth="yes"/>
      <point x="444" y="680"/>
      <point x="378" y="724"/>
      <point x="299" y="724" type="curve" smooth="yes"/>
      <point x="156" y="724"/>
      <point x="45" y="604"/>
      <point x="45" y="330" type="curve" smooth="yes"/>
      <point x="45" y="115"/>
      <point x="102" y="-11"/>
    </contour>
    <contour>
      <point x="271" y="17" type="curve" smooth="yes"/>
      <point x="183" y="17"/>
      <point x="133" y="95"/>
      <point x="133" y="221" type="curve" smooth="yes"/>
      <point x="133" y="232" type="line" smooth="yes"/>
      <point x="133" y="327"/>
      <point x="197" y="398"/>
      <point x="276" y="398" type="curve" smooth="yes"/>
      <point x="349" y="398"/>
      <point x="394" y="344"/>
      <point x="394" y="221" type="curve" smooth="yes"/>
      <point x="394" y="95"/>
      <point x="366" y="17"/>
    </contour>
  </outline>
</glyph>
<glyph name="slashshortcomb.case" format="1">
  <advance width="424"/>
  <outline>
    <contour>
      <point x="82" y="377" type="line"/>
      <point x="82" y="348" type="line"/>
      <point x="347" y="484" type="line"/>
      <point x="347" y="533" type="line"/>
    </contour>
    <contour>
      <point x="215" y="433" type="move" name="_center"/>
    </contour>
  </outline>
</glyph>
<glyph name="strokelongcomb.sc" format="1">
  <advance width="824"/>
  <outline>
    <contour>
      <point x="126" y="548" type="line"/>
      <point x="126" y="522" type="line"/>
      <point x="691" y="522" type="line"/>
      <point x="691" y="548" type="line"/>
    </contour>
    <contour>
      <point x="410" y="537" type="move" name="_center"/>
    </contour>
  </outline>
</glyph>
<glyph name="strokeshortcomb.case" format="1">
  <advance width="511"/>
  <outline>
    <contour>
      <point x="82" y="384" type="line"/>
      <point x="82" y="352" type="line"/>
      <point x="460" y="352" type="line"/>
      <point x="460" y="384" type="line"/>
    </contour>
    <contour>
      <point x="273" y="368" type="move" name="_center"/>
    </contour>
  </outline>
</glyph>
<glyph name="thorn.sc" format="1">
  <advance width="497"/>
  <outline>
    <contour>
      <point x="29" y="20" type="line"/>
      <point x="29" y="-3" type="line"/>
      <point x="151" y="0" type="line"/>
      <point x="273" y="-3" type="line"/>
      <point x="273" y="20" type="line"/>
      <point x="257" y="22" type="line" smooth="yes"/>
      <point x="199" y="29"/>
      <point x="185" y="31"/>
      <point x="185" y="121" type="curve"/>
      <point x="185" y="334" type="line" smooth="yes"/>
      <point x="185" y="424"/>
      <point x="199" y="426"/>
      <point x="257" y="433" type="curve"/>
      <point x="273" y="435" type="line"/>
      <point x="273" y="458" type="line"/>
      <point x="151" y="455" type="line"/>
      <point x="29" y="458" type="line"/>
      <point x="29" y="435" type="line"/>
      <point x="45" y="433" type="line" smooth="yes"/>
      <point x="103" y="426"/>
      <point x="117" y="424"/>
      <point x="117" y="334" type="curve"/>
      <point x="117" y="121" type="line" smooth="yes"/>
      <point x="117" y="31"/>
      <point x="103" y="29"/>
      <point x="45" y="22" type="curve"/>
    </contour>
    <contour>
      <point x="179" y="132" type="line"/>
      <point x="179" y="108" type="line"/>
      <point x="273" y="108" type="line" smooth="yes"/>
      <point x="385" y="108"/>
      <point x="465" y="161"/>
      <point x="465" y="238" type="curve"/>
      <point x="465" y="337"/>
      <point x="383" y="365"/>
      <point x="295" y="365" type="curve"/>
      <point x="153" y="365" type="line"/>
      <point x="175" y="341" type="line"/>
      <point x="295" y="341" type="line" smooth="yes"/>
      <point x="355" y="341"/>
      <point x="387" y="307"/>
      <point x="387" y="238" type="curve"/>
      <point x="387" y="171"/>
      <point x="357" y="132"/>
      <point x="273" y="132" type="curve"/>
    </contour>
  </outline>
</glyph>
<glyph name="three.lf" format="1">
  <advance width="543"/>
  <outline>
    <contour>
      <point x="223" y="-11" type="curve"/>
      <point x="408" y="-11"/>
      <point x="483" y="91"/>
      <point x="483" y="209" type="curve"/>
      <point x="483" y="307"/>
      <point x="429" y="398"/>
      <point x="294" y="400" type="curve"/>
      <point x="288" y="400"/>
      <point x="282" y="400"/>
      <point x="276" y="399" type="curve"/>
      <point x="381" y="436"/>
      <point x="454" y="490"/>
      <point x="454" y="577" type="curve"/>
      <point x="454" y="683"/>
      <point x="365" y="724"/>
      <point x="258" y="724" type="curve"/>
      <point x="150" y="724"/>
      <point x="68" y="663"/>
      <point x="68" y="577" type="curve"/>
      <point x="68" y="532"/>
      <point x="91" y="501"/>
      <point x="125" y="501" type="curve"/>
      <point x="146" y="501"/>
      <point x="168" y="515"/>
      <point x="168" y="539" type="curve"/>
      <point x="170" y="565"/>
      <point x="159" y="572"/>
      <point x="142" y="585" type="curve"/>
      <point x="131" y="593"/>
      <point x="125" y="605"/>
      <point x="126" y="620" type="curve"/>
      <point x="126" y="663"/>
      <point x="178" y="694"/>
      <point x="235" y="694" type="curve"/>
      <point x="329" y="694"/>
      <point x="366" y="637"/>
      <point x="366" y="577" type="curve"/>
      <point x="366" y="487"/>
      <point x="325" y="438"/>
      <point x="178" y="392" type="curve"/>
      <point x="177" y="357" type="line"/>
      <point x="203" y="367"/>
      <point x="230" y="374"/>
      <point x="261" y="374" type="curve"/>
      <point x="344" y="374"/>
      <point x="395" y="336"/>
      <point x="395" y="232" type="curve"/>
      <point x="395" y="136"/>
      <point x="357" y="18"/>
      <point x="224" y="18" type="curve"/>
      <point x="153" y="18"/>
      <point x="136" y="44"/>
      <point x="136" y="67" type="curve"/>
      <point x="136" y="84"/>
      <point x="150" y="95"/>
      <point x="150" y="118" type="curve"/>
      <point x="150" y="143"/>
      <point x="135" y="160"/>
      <point x="110" y="161" type="curve"/>
      <point x="73" y="161"/>
      <point x="55" y="136"/>
      <point x="55" y="101" type="curve"/>
      <point x="55" y="37"/>
      <point x="133" y="-11"/>
    </contour>
  </outline>
</glyph>
<glyph name="w.sc" format="1">
  <advance width="708"/>
  <outline>
    <contour>
      <point x="54" y="393" type="curve"/>
      <point x="188" y="-4" type="line"/>
      <point x="215" y="-4" type="line"/>
      <point x="366" y="368" type="line"/>
      <point x="344" y="369" type="line"/>
      <point x="475" y="-4" type="line"/>
      <point x="499" y="-4" type="line"/>
      <point x="638" y="397" type="line" smooth="yes"/>
      <point x="645" y="418"/>
      <point x="666" y="426"/>
      <point x="695" y="431" type="curve"/>
      <point x="711" y="434" type="line"/>
      <point x="711" y="456" type="line"/>
      <point x="635" y="452" type="line"/>
      <point x="548" y="456" type="line"/>
      <point x="548" y="433" type="line"/>
      <point x="570" y="430" type="line" smooth="yes"/>
      <point x="597" y="426"/>
      <point x="614" y="422"/>
      <point x="614" y="406" type="curve"/>
      <point x="614" y="402"/>
      <point x="613" y="398"/>
      <point x="611" y="393" type="curve"/>
      <point x="500" y="73" type="line"/>
      <point x="520" y="73" type="line"/>
      <point x="423" y="360" type="line" smooth="yes"/>
      <point x="419" y="373"/>
      <point x="417" y="384"/>
      <point x="417" y="393" type="curve"/>
      <point x="417" y="418"/>
      <point x="430" y="430"/>
      <point x="453" y="432" type="curve"/>
      <point x="475" y="434" type="line"/>
      <point x="473" y="457" type="line"/>
      <point x="414" y="453" type="line" smooth="yes"/>
      <point x="391" y="451"/>
      <point x="372" y="441"/>
      <point x="360" y="426" type="curve"/>
      <point x="351" y="441"/>
      <point x="334" y="451"/>
      <point x="305" y="454" type="curve"/>
      <point x="275" y="457" type="line"/>
      <point x="272" y="434" type="line"/>
      <point x="298" y="431" type="line" smooth="yes"/>
      <point x="325" y="428"/>
      <point x="343" y="415"/>
      <point x="343" y="391" type="curve"/>
      <point x="343" y="383"/>
      <point x="340" y="373"/>
      <point x="336" y="363" type="curve"/>
      <point x="216" y="63" type="line"/>
      <point x="238" y="62" type="line"/>
      <point x="132" y="384" type="line" smooth="yes"/>
      <point x="130" y="390"/>
      <point x="129" y="394"/>
      <point x="129" y="399" type="curve"/>
      <point x="129" y="421"/>
      <point x="151" y="430"/>
      <point x="180" y="433" type="curve"/>
      <point x="197" y="435" type="line"/>
      <point x="195" y="457" type="line"/>
      <point x="86" y="453" type="line"/>
      <point x="-15" y="457" type="line"/>
      <point x="-15" y="435" type="line"/>
      <point x="-1" y="433" type="line" smooth="yes"/>
      <point x="28" y="429"/>
      <point x="45" y="421"/>
    </contour>
    <contour>
      <point x="351" y="0" type="move" name="bottom"/>
    </contour>
    <contour>
      <point x="371" y="455" type="move" name="top"/>
    </contour>
  </outline>
</glyph>
<glyph name="y.sc" format="1">
  <advance width="498"/>
  <outline>
    <contour>
      <point x="102" y="373" type="curve"/>
      <point x="230" y="161" type="line"/>
      <point x="286" y="192" type="line"/>
      <point x="173" y="382" type="line" smooth="yes"/>
      <point x="169" y="389"/>
      <point x="167" y="396"/>
      <point x="167" y="402" type="curve"/>
      <point x="167" y="422"/>
      <point x="191" y="432"/>
      <point x="208" y="433" type="curve"/>
      <point x="235" y="435" type="line"/>
      <point x="235" y="458" type="line"/>
      <point x="131" y="455" type="line"/>
      <point x="17" y="458" type="line"/>
      <point x="17" y="435" type="line"/>
      <point x="37" y="431" type="line" smooth="yes"/>
      <point x="71" y="424"/>
      <point x="77" y="415"/>
    </contour>
    <contour>
      <point x="134" y="21" type="line"/>
      <point x="134" y="-2" type="line"/>
      <point x="257" y="1" type="line"/>
      <point x="387" y="-2" type="line"/>
      <point x="387" y="21" type="line"/>
      <point x="370" y="23" type="line" smooth="yes"/>
      <point x="305" y="30"/>
      <point x="292" y="39"/>
      <point x="292" y="122" type="curve"/>
      <point x="292" y="198" type="line"/>
      <point x="222" y="191" type="line"/>
      <point x="222" y="122" type="line" smooth="yes"/>
      <point x="222" y="32"/>
      <point x="208" y="30"/>
      <point x="150" y="23" type="curve"/>
    </contour>
    <contour>
      <point x="271" y="206" type="line"/>
      <point x="289" y="185" type="line"/>
      <point x="389" y="379" type="line" smooth="yes"/>
      <point x="405" y="410"/>
      <point x="424" y="430"/>
      <point x="459" y="433" type="curve"/>
      <point x="481" y="435" type="line"/>
      <point x="481" y="457" type="line"/>
      <point x="399" y="454" type="line"/>
      <point x="307" y="457" type="line"/>
      <point x="307" y="435" type="line"/>
      <point x="330" y="433" type="line" smooth="yes"/>
      <point x="353" y="431"/>
      <point x="370" y="423"/>
      <point x="370" y="406" type="curve"/>
      <point x="370" y="401"/>
      <point x="369" y="395"/>
      <point x="365" y="388" type="curve"/>
    </contour>
    <contour>
      <point x="249" y="0" type="move" name="bottom"/>
    </contour>
    <contour>
      <point x="259" y="455" type="move" name="top"/>
    </contour>
    <contour>
      <point x="27" y="455" type="move" name="topleft"/>
    </contour>
  </outline>
</glyph>
<glyph name="z.sc" format="1">
  <advance width="494"/>
  <outline>
    <contour>
      <point x="47" y="17" type="line"/>
      <point x="47" y="-2" type="line"/>
      <point x="302" y="0" type="line"/>
      <point x="441" y="-2" type="line"/>
      <point x="441" y="69" type="line"/>
      <point x="447" y="178" type="line"/>
      <point x="425" y="178" type="line"/>
      <point x="412" y="78"/>
      <point x="394" y="29"/>
      <point x="290" y="27" type="curve"/>
      <point x="138" y="24" type="line"/>
      <point x="436" y="427" type="line"/>
      <point x="436" y="457" type="line"/>
      <point x="262" y="455" type="line"/>
      <point x="57" y="457" type="line"/>
      <point x="56" y="415" type="line"/>
      <point x="49" y="329" type="line"/>
      <point x="72" y="329" type="line"/>
      <point x="80" y="394"/>
      <point x="87" y="427"/>
      <point x="220" y="428" type="curve"/>
      <point x="349" y="428" type="line"/>
    </contour>
    <contour>
      <point x="247" y="0" type="move" name="bottom"/>
    </contour>
    <contour>
      <point x="247" y="455" type="move" name="top"/>
    </contour>
  </outline>
</glyph>
